<svg xmlns="http://www.w3.org/2000/svg" version="1.1" xmlns:xlink="http://www.w3.org/1999/xlink" xmlns:svgjs="http://svgjs.dev/svgjs" viewBox="0 0 1422 800"><g stroke-width="20" stroke="hsl(341, 100%, 85%)" fill="none" stroke-linecap="butt"><line x1="118" y1="0" x2="0" y2="118" opacity="0.96"></line><line x1="236" y1="0" x2="118" y2="118" opacity="0.09"></line><line x1="236" y1="0" x2="354" y2="118" opacity="0.57"></line><line x1="472" y1="0" x2="354" y2="118" opacity="0.52"></line><line x1="590" y1="0" x2="472" y2="118" opacity="0.73"></line><line x1="708" y1="0" x2="590" y2="118" opacity="0.76"></line><line x1="826" y1="0" x2="708" y2="118" opacity="0.13"></line><line x1="944" y1="0" x2="826" y2="118" opacity="0.56"></line><line x1="1062" y1="0" x2="944" y2="118" opacity="0.68"></line><line x1="1180" y1="0" x2="1062" y2="118" opacity="0.74"></line><line x1="1298" y1="0" x2="1180" y2="118" opacity="0.50"></line><line x1="1416" y1="0" x2="1298" y2="118" opacity="0.80"></line><line x1="1534" y1="0" x2="1416" y2="118" opacity="0.26"></line><line x1="118" y1="118" x2="0" y2="236" opacity="0.30"></line><line x1="236" y1="118" x2="118" y2="236" opacity="0.46"></line><line x1="354" y1="118" x2="236" y2="236" opacity="0.59"></line><line x1="472" y1="118" x2="354" y2="236" opacity="0.37"></line><line x1="590" y1="118" x2="472" y2="236" opacity="0.18"></line><line x1="708" y1="118" x2="590" y2="236" opacity="0.98"></line><line x1="826" y1="118" x2="708" y2="236" opacity="0.83"></line><line x1="944" y1="118" x2="826" y2="236" opacity="0.56"></line><line x1="1062" y1="118" x2="944" y2="236" opacity="0.33"></line><line x1="1180" y1="118" x2="1062" y2="236" opacity="0.54"></line><line x1="1298" y1="118" x2="1180" y2="236" opacity="0.18"></line><line x1="1298" y1="118" x2="1416" y2="236" opacity="0.13"></line><line x1="1534" y1="118" x2="1416" y2="236" opacity="0.54"></line><line x1="118" y1="236" x2="0" y2="354" opacity="0.91"></line><line x1="236" y1="236" x2="118" y2="354" opacity="0.68"></line><line x1="354" y1="236" x2="236" y2="354" opacity="0.30"></line><line x1="472" y1="236" x2="354" y2="354" opacity="0.93"></line><line x1="590" y1="236" x2="472" y2="354" opacity="0.17"></line><line x1="708" y1="236" x2="590" y2="354" opacity="0.87"></line><line x1="826" y1="236" x2="708" y2="354" opacity="0.30"></line><line x1="944" y1="236" x2="826" y2="354" opacity="0.13"></line><line x1="1062" y1="236" x2="944" y2="354" opacity="0.11"></line><line x1="1180" y1="236" x2="1062" y2="354" opacity="0.68"></line><line x1="1298" y1="236" x2="1180" y2="354" opacity="0.15"></line><line x1="1298" y1="236" x2="1416" y2="354" opacity="0.36"></line><line x1="1534" y1="236" x2="1416" y2="354" opacity="0.16"></line><line x1="118" y1="354" x2="0" y2="472" opacity="0.33"></line><line x1="118" y1="354" x2="236" y2="472" opacity="0.26"></line><line x1="354" y1="354" x2="236" y2="472" opacity="0.29"></line><line x1="472" y1="354" x2="354" y2="472" opacity="0.34"></line><line x1="590" y1="354" x2="472" y2="472" opacity="0.23"></line><line x1="708" y1="354" x2="590" y2="472" opacity="0.52"></line><line x1="826" y1="354" x2="708" y2="472" opacity="0.92"></line><line x1="944" y1="354" x2="826" y2="472" opacity="0.30"></line><line x1="1062" y1="354" x2="944" y2="472" opacity="0.98"></line><line x1="1180" y1="354" x2="1062" y2="472" opacity="0.79"></line><line x1="1298" y1="354" x2="1180" y2="472" opacity="0.55"></line><line x1="1416" y1="354" x2="1298" y2="472" opacity="0.10"></line><line x1="1534" y1="354" x2="1416" y2="472" opacity="0.43"></line><line x1="118" y1="472" x2="0" y2="590" opacity="0.37"></line><line x1="236" y1="472" x2="118" y2="590" opacity="0.21"></line><line x1="354" y1="472" x2="236" y2="590" opacity="0.38"></line><line x1="472" y1="472" x2="354" y2="590" opacity="0.54"></line><line x1="472" y1="472" x2="590" y2="590" opacity="0.96"></line><line x1="708" y1="472" x2="590" y2="590" opacity="0.42"></line><line x1="826" y1="472" x2="708" y2="590" opacity="0.47"></line><line x1="826" y1="472" x2="944" y2="590" opacity="0.15"></line><line x1="1062" y1="472" x2="944" y2="590" opacity="0.08"></line><line x1="1180" y1="472" x2="1062" y2="590" opacity="0.44"></line><line x1="1298" y1="472" x2="1180" y2="590" opacity="0.54"></line><line x1="1416" y1="472" x2="1298" y2="590" opacity="0.47"></line><line x1="1534" y1="472" x2="1416" y2="590" opacity="0.40"></line><line x1="118" y1="590" x2="0" y2="708" opacity="0.93"></line><line x1="236" y1="590" x2="118" y2="708" opacity="0.67"></line><line x1="354" y1="590" x2="236" y2="708" opacity="0.81"></line><line x1="472" y1="590" x2="354" y2="708" opacity="0.66"></line><line x1="590" y1="590" x2="472" y2="708" opacity="0.81"></line><line x1="708" y1="590" x2="590" y2="708" opacity="0.85"></line><line x1="826" y1="590" x2="708" y2="708" opacity="0.16"></line><line x1="944" y1="590" x2="826" y2="708" opacity="0.95"></line><line x1="1062" y1="590" x2="944" y2="708" opacity="0.24"></line><line x1="1062" y1="590" x2="1180" y2="708" opacity="0.17"></line><line x1="1298" y1="590" x2="1180" y2="708" opacity="0.22"></line><line x1="1416" y1="590" x2="1298" y2="708" opacity="0.51"></line><line x1="1534" y1="590" x2="1416" y2="708" opacity="0.54"></line><line x1="118" y1="708" x2="0" y2="826" opacity="0.90"></line><line x1="236" y1="708" x2="118" y2="826" opacity="0.62"></line><line x1="354" y1="708" x2="236" y2="826" opacity="0.29"></line><line x1="472" y1="708" x2="354" y2="826" opacity="0.85"></line><line x1="590" y1="708" x2="472" y2="826" opacity="0.98"></line><line x1="708" y1="708" x2="590" y2="826" opacity="0.26"></line><line x1="826" y1="708" x2="708" y2="826" opacity="0.34"></line><line x1="944" y1="708" x2="826" y2="826" opacity="0.49"></line><line x1="1062" y1="708" x2="944" y2="826" opacity="0.37"></line><line x1="1180" y1="708" x2="1062" y2="826" opacity="0.14"></line><line x1="1298" y1="708" x2="1180" y2="826" opacity="0.99"></line><line x1="1416" y1="708" x2="1298" y2="826" opacity="0.59"></line><line x1="1534" y1="708" x2="1416" y2="826" opacity="0.64"></line></g></svg>