<svg xmlns="http://www.w3.org/2000/svg" version="1.1" xmlns:xlink="http://www.w3.org/1999/xlink" xmlns:svgjs="http://svgjs.dev/svgjs" viewBox="0 0 800 800" opacity="0.59" width="800" height="800"><g stroke-width="1.75" stroke="hsla(0, 0%, 100%, 1.00)" fill="none"><rect width="25" height="4.157894736842105" x="-12.5" y="-2.0789473684210527" stroke="none" fill="hsla(0, 0%, 100%, 1.00)" rx="2.0789473684210527"></rect><rect width="4.157894736842105" height="25" x="-2.0789473684210527" y="-12.5" stroke="none" fill="hsla(0, 0%, 100%, 1.00)" rx="2.0789473684210527"></rect><rect width="25" height="4.157894736842105" x="37.5" y="-2.0789473684210527" stroke="none" fill="hsla(0, 0%, 100%, 1.00)" rx="2.0789473684210527"></rect><rect width="4.157894736842105" height="25" x="47.921052631578945" y="-12.5" stroke="none" fill="hsla(0, 0%, 100%, 1.00)" rx="2.0789473684210527"></rect><rect width="25" height="4.157894736842105" x="87.5" y="-2.0789473684210527" stroke="none" fill="hsla(0, 0%, 100%, 1.00)" rx="2.0789473684210527"></rect><rect width="4.157894736842105" height="25" x="97.92105263157895" y="-12.5" stroke="none" fill="hsla(0, 0%, 100%, 1.00)" rx="2.0789473684210527"></rect><rect width="25" height="4.157894736842105" x="137.5" y="-2.0789473684210527" stroke="none" fill="hsla(0, 0%, 100%, 1.00)" rx="2.0789473684210527"></rect><rect width="4.157894736842105" height="25" x="147.92105263157896" y="-12.5" stroke="none" fill="hsla(0, 0%, 100%, 1.00)" rx="2.0789473684210527"></rect><rect width="25" height="4.157894736842105" x="187.5" y="-2.0789473684210527" stroke="none" fill="hsla(0, 0%, 100%, 1.00)" rx="2.0789473684210527"></rect><rect width="4.157894736842105" height="25" x="197.92105263157896" y="-12.5" stroke="none" fill="hsla(0, 0%, 100%, 1.00)" rx="2.0789473684210527"></rect><rect width="25" height="4.157894736842105" x="237.5" y="-2.0789473684210527" stroke="none" fill="hsla(0, 0%, 100%, 1.00)" rx="2.0789473684210527"></rect><rect width="4.157894736842105" height="25" x="247.92105263157896" y="-12.5" stroke="none" fill="hsla(0, 0%, 100%, 1.00)" rx="2.0789473684210527"></rect><rect width="25" height="4.157894736842105" x="287.5" y="-2.0789473684210527" stroke="none" fill="hsla(0, 0%, 100%, 1.00)" rx="2.0789473684210527"></rect><rect width="4.157894736842105" height="25" x="297.92105263157896" y="-12.5" stroke="none" fill="hsla(0, 0%, 100%, 1.00)" rx="2.0789473684210527"></rect><rect width="25" height="4.157894736842105" x="337.5" y="-2.0789473684210527" stroke="none" fill="hsla(0, 0%, 100%, 1.00)" rx="2.0789473684210527"></rect><rect width="4.157894736842105" height="25" x="347.92105263157896" y="-12.5" stroke="none" fill="hsla(0, 0%, 100%, 1.00)" rx="2.0789473684210527"></rect><rect width="25" height="4.157894736842105" x="387.5" y="-2.0789473684210527" stroke="none" fill="hsla(0, 0%, 100%, 1.00)" rx="2.0789473684210527"></rect><rect width="4.157894736842105" height="25" x="397.92105263157896" y="-12.5" stroke="none" fill="hsla(0, 0%, 100%, 1.00)" rx="2.0789473684210527"></rect><rect width="25" height="4.157894736842105" x="437.5" y="-2.0789473684210527" stroke="none" fill="hsla(0, 0%, 100%, 1.00)" rx="2.0789473684210527"></rect><rect width="4.157894736842105" height="25" x="447.92105263157896" y="-12.5" stroke="none" fill="hsla(0, 0%, 100%, 1.00)" rx="2.0789473684210527"></rect><rect width="25" height="4.157894736842105" x="487.5" y="-2.0789473684210527" stroke="none" fill="hsla(0, 0%, 100%, 1.00)" rx="2.0789473684210527"></rect><rect width="4.157894736842105" height="25" x="497.92105263157896" y="-12.5" stroke="none" fill="hsla(0, 0%, 100%, 1.00)" rx="2.0789473684210527"></rect><rect width="25" height="4.157894736842105" x="537.5" y="-2.0789473684210527" stroke="none" fill="hsla(0, 0%, 100%, 1.00)" rx="2.0789473684210527"></rect><rect width="4.157894736842105" height="25" x="547.921052631579" y="-12.5" stroke="none" fill="hsla(0, 0%, 100%, 1.00)" rx="2.0789473684210527"></rect><rect width="25" height="4.157894736842105" x="587.5" y="-2.0789473684210527" stroke="none" fill="hsla(0, 0%, 100%, 1.00)" rx="2.0789473684210527"></rect><rect width="4.157894736842105" height="25" x="597.921052631579" y="-12.5" stroke="none" fill="hsla(0, 0%, 100%, 1.00)" rx="2.0789473684210527"></rect><rect width="25" height="4.157894736842105" x="637.5" y="-2.0789473684210527" stroke="none" fill="hsla(0, 0%, 100%, 1.00)" rx="2.0789473684210527"></rect><rect width="4.157894736842105" height="25" x="647.921052631579" y="-12.5" stroke="none" fill="hsla(0, 0%, 100%, 1.00)" rx="2.0789473684210527"></rect><rect width="25" height="4.157894736842105" x="687.5" y="-2.0789473684210527" stroke="none" fill="hsla(0, 0%, 100%, 1.00)" rx="2.0789473684210527"></rect><rect width="4.157894736842105" height="25" x="697.921052631579" y="-12.5" stroke="none" fill="hsla(0, 0%, 100%, 1.00)" rx="2.0789473684210527"></rect><rect width="25" height="4.157894736842105" x="737.5" y="-2.0789473684210527" stroke="none" fill="hsla(0, 0%, 100%, 1.00)" rx="2.0789473684210527"></rect><rect width="4.157894736842105" height="25" x="747.921052631579" y="-12.5" stroke="none" fill="hsla(0, 0%, 100%, 1.00)" rx="2.0789473684210527"></rect><rect width="25" height="4.157894736842105" x="787.5" y="-2.0789473684210527" stroke="none" fill="hsla(0, 0%, 100%, 1.00)" rx="2.0789473684210527"></rect><rect width="4.157894736842105" height="25" x="797.921052631579" y="-12.5" stroke="none" fill="hsla(0, 0%, 100%, 1.00)" rx="2.0789473684210527"></rect><rect width="25" height="4.157894736842105" x="-12.5" y="47.921052631578945" stroke="none" fill="hsla(0, 0%, 100%, 1.00)" rx="2.0789473684210527"></rect><rect width="4.157894736842105" height="25" x="-2.0789473684210527" y="37.5" stroke="none" fill="hsla(0, 0%, 100%, 1.00)" rx="2.0789473684210527"></rect><rect width="25" height="4.157894736842105" x="37.5" y="47.921052631578945" stroke="none" fill="hsla(0, 0%, 100%, 1.00)" rx="2.0789473684210527"></rect><rect width="4.157894736842105" height="25" x="47.921052631578945" y="37.5" stroke="none" fill="hsla(0, 0%, 100%, 1.00)" rx="2.0789473684210527"></rect><rect width="25" height="4.157894736842105" x="87.5" y="47.921052631578945" stroke="none" fill="hsla(0, 0%, 100%, 1.00)" rx="2.0789473684210527"></rect><rect width="4.157894736842105" height="25" x="97.92105263157895" y="37.5" stroke="none" fill="hsla(0, 0%, 100%, 1.00)" rx="2.0789473684210527"></rect><rect width="25" height="4.157894736842105" x="137.5" y="47.921052631578945" stroke="none" fill="hsla(0, 0%, 100%, 1.00)" rx="2.0789473684210527"></rect><rect width="4.157894736842105" height="25" x="147.92105263157896" y="37.5" stroke="none" fill="hsla(0, 0%, 100%, 1.00)" rx="2.0789473684210527"></rect><rect width="25" height="4.157894736842105" x="187.5" y="47.921052631578945" stroke="none" fill="hsla(0, 0%, 100%, 1.00)" rx="2.0789473684210527"></rect><rect width="4.157894736842105" height="25" x="197.92105263157896" y="37.5" stroke="none" fill="hsla(0, 0%, 100%, 1.00)" rx="2.0789473684210527"></rect><rect width="25" height="4.157894736842105" x="237.5" y="47.921052631578945" stroke="none" fill="hsla(0, 0%, 100%, 1.00)" rx="2.0789473684210527"></rect><rect width="4.157894736842105" height="25" x="247.92105263157896" y="37.5" stroke="none" fill="hsla(0, 0%, 100%, 1.00)" rx="2.0789473684210527"></rect><rect width="25" height="4.157894736842105" x="287.5" y="47.921052631578945" stroke="none" fill="hsla(0, 0%, 100%, 1.00)" rx="2.0789473684210527"></rect><rect width="4.157894736842105" height="25" x="297.92105263157896" y="37.5" stroke="none" fill="hsla(0, 0%, 100%, 1.00)" rx="2.0789473684210527"></rect><rect width="25" height="4.157894736842105" x="337.5" y="47.921052631578945" stroke="none" fill="hsla(0, 0%, 100%, 1.00)" rx="2.0789473684210527"></rect><rect width="4.157894736842105" height="25" x="347.92105263157896" y="37.5" stroke="none" fill="hsla(0, 0%, 100%, 1.00)" rx="2.0789473684210527"></rect><rect width="25" height="4.157894736842105" x="387.5" y="47.921052631578945" stroke="none" fill="hsla(0, 0%, 100%, 1.00)" rx="2.0789473684210527"></rect><rect width="4.157894736842105" height="25" x="397.92105263157896" y="37.5" stroke="none" fill="hsla(0, 0%, 100%, 1.00)" rx="2.0789473684210527"></rect><rect width="25" height="4.157894736842105" x="437.5" y="47.921052631578945" stroke="none" fill="hsla(0, 0%, 100%, 1.00)" rx="2.0789473684210527"></rect><rect width="4.157894736842105" height="25" x="447.92105263157896" y="37.5" stroke="none" fill="hsla(0, 0%, 100%, 1.00)" rx="2.0789473684210527"></rect><rect width="25" height="4.157894736842105" x="487.5" y="47.921052631578945" stroke="none" fill="hsla(0, 0%, 100%, 1.00)" rx="2.0789473684210527"></rect><rect width="4.157894736842105" height="25" x="497.92105263157896" y="37.5" stroke="none" fill="hsla(0, 0%, 100%, 1.00)" rx="2.0789473684210527"></rect><rect width="25" height="4.157894736842105" x="537.5" y="47.921052631578945" stroke="none" fill="hsla(0, 0%, 100%, 1.00)" rx="2.0789473684210527"></rect><rect width="4.157894736842105" height="25" x="547.921052631579" y="37.5" stroke="none" fill="hsla(0, 0%, 100%, 1.00)" rx="2.0789473684210527"></rect><rect width="25" height="4.157894736842105" x="587.5" y="47.921052631578945" stroke="none" fill="hsla(0, 0%, 100%, 1.00)" rx="2.0789473684210527"></rect><rect width="4.157894736842105" height="25" x="597.921052631579" y="37.5" stroke="none" fill="hsla(0, 0%, 100%, 1.00)" rx="2.0789473684210527"></rect><rect width="25" height="4.157894736842105" x="637.5" y="47.921052631578945" stroke="none" fill="hsla(0, 0%, 100%, 1.00)" rx="2.0789473684210527"></rect><rect width="4.157894736842105" height="25" x="647.921052631579" y="37.5" stroke="none" fill="hsla(0, 0%, 100%, 1.00)" rx="2.0789473684210527"></rect><rect width="25" height="4.157894736842105" x="687.5" y="47.921052631578945" stroke="none" fill="hsla(0, 0%, 100%, 1.00)" rx="2.0789473684210527"></rect><rect width="4.157894736842105" height="25" x="697.921052631579" y="37.5" stroke="none" fill="hsla(0, 0%, 100%, 1.00)" rx="2.0789473684210527"></rect><rect width="25" height="4.157894736842105" x="737.5" y="47.921052631578945" stroke="none" fill="hsla(0, 0%, 100%, 1.00)" rx="2.0789473684210527"></rect><rect width="4.157894736842105" height="25" x="747.921052631579" y="37.5" stroke="none" fill="hsla(0, 0%, 100%, 1.00)" rx="2.0789473684210527"></rect><rect width="25" height="4.157894736842105" x="787.5" y="47.921052631578945" stroke="none" fill="hsla(0, 0%, 100%, 1.00)" rx="2.0789473684210527"></rect><rect width="4.157894736842105" height="25" x="797.921052631579" y="37.5" stroke="none" fill="hsla(0, 0%, 100%, 1.00)" rx="2.0789473684210527"></rect><rect width="25" height="4.157894736842105" x="-12.5" y="97.92105263157895" stroke="none" fill="hsla(0, 0%, 100%, 1.00)" rx="2.0789473684210527"></rect><rect width="4.157894736842105" height="25" x="-2.0789473684210527" y="87.5" stroke="none" fill="hsla(0, 0%, 100%, 1.00)" rx="2.0789473684210527"></rect><rect width="25" height="4.157894736842105" x="37.5" y="97.92105263157895" stroke="none" fill="hsla(0, 0%, 100%, 1.00)" rx="2.0789473684210527"></rect><rect width="4.157894736842105" height="25" x="47.921052631578945" y="87.5" stroke="none" fill="hsla(0, 0%, 100%, 1.00)" rx="2.0789473684210527"></rect><rect width="25" height="4.157894736842105" x="87.5" y="97.92105263157895" stroke="none" fill="hsla(0, 0%, 100%, 1.00)" rx="2.0789473684210527"></rect><rect width="4.157894736842105" height="25" x="97.92105263157895" y="87.5" stroke="none" fill="hsla(0, 0%, 100%, 1.00)" rx="2.0789473684210527"></rect><rect width="25" height="4.157894736842105" x="137.5" y="97.92105263157895" stroke="none" fill="hsla(0, 0%, 100%, 1.00)" rx="2.0789473684210527"></rect><rect width="4.157894736842105" height="25" x="147.92105263157896" y="87.5" stroke="none" fill="hsla(0, 0%, 100%, 1.00)" rx="2.0789473684210527"></rect><rect width="25" height="4.157894736842105" x="187.5" y="97.92105263157895" stroke="none" fill="hsla(0, 0%, 100%, 1.00)" rx="2.0789473684210527"></rect><rect width="4.157894736842105" height="25" x="197.92105263157896" y="87.5" stroke="none" fill="hsla(0, 0%, 100%, 1.00)" rx="2.0789473684210527"></rect><rect width="25" height="4.157894736842105" x="237.5" y="97.92105263157895" stroke="none" fill="hsla(0, 0%, 100%, 1.00)" rx="2.0789473684210527"></rect><rect width="4.157894736842105" height="25" x="247.92105263157896" y="87.5" stroke="none" fill="hsla(0, 0%, 100%, 1.00)" rx="2.0789473684210527"></rect><rect width="25" height="4.157894736842105" x="287.5" y="97.92105263157895" stroke="none" fill="hsla(0, 0%, 100%, 1.00)" rx="2.0789473684210527"></rect><rect width="4.157894736842105" height="25" x="297.92105263157896" y="87.5" stroke="none" fill="hsla(0, 0%, 100%, 1.00)" rx="2.0789473684210527"></rect><rect width="25" height="4.157894736842105" x="337.5" y="97.92105263157895" stroke="none" fill="hsla(0, 0%, 100%, 1.00)" rx="2.0789473684210527"></rect><rect width="4.157894736842105" height="25" x="347.92105263157896" y="87.5" stroke="none" fill="hsla(0, 0%, 100%, 1.00)" rx="2.0789473684210527"></rect><rect width="25" height="4.157894736842105" x="387.5" y="97.92105263157895" stroke="none" fill="hsla(0, 0%, 100%, 1.00)" rx="2.0789473684210527"></rect><rect width="4.157894736842105" height="25" x="397.92105263157896" y="87.5" stroke="none" fill="hsla(0, 0%, 100%, 1.00)" rx="2.0789473684210527"></rect><rect width="25" height="4.157894736842105" x="437.5" y="97.92105263157895" stroke="none" fill="hsla(0, 0%, 100%, 1.00)" rx="2.0789473684210527"></rect><rect width="4.157894736842105" height="25" x="447.92105263157896" y="87.5" stroke="none" fill="hsla(0, 0%, 100%, 1.00)" rx="2.0789473684210527"></rect><rect width="25" height="4.157894736842105" x="487.5" y="97.92105263157895" stroke="none" fill="hsla(0, 0%, 100%, 1.00)" rx="2.0789473684210527"></rect><rect width="4.157894736842105" height="25" x="497.92105263157896" y="87.5" stroke="none" fill="hsla(0, 0%, 100%, 1.00)" rx="2.0789473684210527"></rect><rect width="25" height="4.157894736842105" x="537.5" y="97.92105263157895" stroke="none" fill="hsla(0, 0%, 100%, 1.00)" rx="2.0789473684210527"></rect><rect width="4.157894736842105" height="25" x="547.921052631579" y="87.5" stroke="none" fill="hsla(0, 0%, 100%, 1.00)" rx="2.0789473684210527"></rect><rect width="25" height="4.157894736842105" x="587.5" y="97.92105263157895" stroke="none" fill="hsla(0, 0%, 100%, 1.00)" rx="2.0789473684210527"></rect><rect width="4.157894736842105" height="25" x="597.921052631579" y="87.5" stroke="none" fill="hsla(0, 0%, 100%, 1.00)" rx="2.0789473684210527"></rect><rect width="25" height="4.157894736842105" x="637.5" y="97.92105263157895" stroke="none" fill="hsla(0, 0%, 100%, 1.00)" rx="2.0789473684210527"></rect><rect width="4.157894736842105" height="25" x="647.921052631579" y="87.5" stroke="none" fill="hsla(0, 0%, 100%, 1.00)" rx="2.0789473684210527"></rect><rect width="25" height="4.157894736842105" x="687.5" y="97.92105263157895" stroke="none" fill="hsla(0, 0%, 100%, 1.00)" rx="2.0789473684210527"></rect><rect width="4.157894736842105" height="25" x="697.921052631579" y="87.5" stroke="none" fill="hsla(0, 0%, 100%, 1.00)" rx="2.0789473684210527"></rect><rect width="25" height="4.157894736842105" x="737.5" y="97.92105263157895" stroke="none" fill="hsla(0, 0%, 100%, 1.00)" rx="2.0789473684210527"></rect><rect width="4.157894736842105" height="25" x="747.921052631579" y="87.5" stroke="none" fill="hsla(0, 0%, 100%, 1.00)" rx="2.0789473684210527"></rect><rect width="25" height="4.157894736842105" x="787.5" y="97.92105263157895" stroke="none" fill="hsla(0, 0%, 100%, 1.00)" rx="2.0789473684210527"></rect><rect width="4.157894736842105" height="25" x="797.921052631579" y="87.5" stroke="none" fill="hsla(0, 0%, 100%, 1.00)" rx="2.0789473684210527"></rect><rect width="25" height="4.157894736842105" x="-12.5" y="147.92105263157896" stroke="none" fill="hsla(0, 0%, 100%, 1.00)" rx="2.0789473684210527"></rect><rect width="4.157894736842105" height="25" x="-2.0789473684210527" y="137.5" stroke="none" fill="hsla(0, 0%, 100%, 1.00)" rx="2.0789473684210527"></rect><rect width="25" height="4.157894736842105" x="37.5" y="147.92105263157896" stroke="none" fill="hsla(0, 0%, 100%, 1.00)" rx="2.0789473684210527"></rect><rect width="4.157894736842105" height="25" x="47.921052631578945" y="137.5" stroke="none" fill="hsla(0, 0%, 100%, 1.00)" rx="2.0789473684210527"></rect><rect width="25" height="4.157894736842105" x="87.5" y="147.92105263157896" stroke="none" fill="hsla(0, 0%, 100%, 1.00)" rx="2.0789473684210527"></rect><rect width="4.157894736842105" height="25" x="97.92105263157895" y="137.5" stroke="none" fill="hsla(0, 0%, 100%, 1.00)" rx="2.0789473684210527"></rect><rect width="25" height="4.157894736842105" x="137.5" y="147.92105263157896" stroke="none" fill="hsla(0, 0%, 100%, 1.00)" rx="2.0789473684210527"></rect><rect width="4.157894736842105" height="25" x="147.92105263157896" y="137.5" stroke="none" fill="hsla(0, 0%, 100%, 1.00)" rx="2.0789473684210527"></rect><rect width="25" height="4.157894736842105" x="187.5" y="147.92105263157896" stroke="none" fill="hsla(0, 0%, 100%, 1.00)" rx="2.0789473684210527"></rect><rect width="4.157894736842105" height="25" x="197.92105263157896" y="137.5" stroke="none" fill="hsla(0, 0%, 100%, 1.00)" rx="2.0789473684210527"></rect><rect width="25" height="4.157894736842105" x="237.5" y="147.92105263157896" stroke="none" fill="hsla(0, 0%, 100%, 1.00)" rx="2.0789473684210527"></rect><rect width="4.157894736842105" height="25" x="247.92105263157896" y="137.5" stroke="none" fill="hsla(0, 0%, 100%, 1.00)" rx="2.0789473684210527"></rect><rect width="25" height="4.157894736842105" x="287.5" y="147.92105263157896" stroke="none" fill="hsla(0, 0%, 100%, 1.00)" rx="2.0789473684210527"></rect><rect width="4.157894736842105" height="25" x="297.92105263157896" y="137.5" stroke="none" fill="hsla(0, 0%, 100%, 1.00)" rx="2.0789473684210527"></rect><rect width="25" height="4.157894736842105" x="337.5" y="147.92105263157896" stroke="none" fill="hsla(0, 0%, 100%, 1.00)" rx="2.0789473684210527"></rect><rect width="4.157894736842105" height="25" x="347.92105263157896" y="137.5" stroke="none" fill="hsla(0, 0%, 100%, 1.00)" rx="2.0789473684210527"></rect><rect width="25" height="4.157894736842105" x="387.5" y="147.92105263157896" stroke="none" fill="hsla(0, 0%, 100%, 1.00)" rx="2.0789473684210527"></rect><rect width="4.157894736842105" height="25" x="397.92105263157896" y="137.5" stroke="none" fill="hsla(0, 0%, 100%, 1.00)" rx="2.0789473684210527"></rect><rect width="25" height="4.157894736842105" x="437.5" y="147.92105263157896" stroke="none" fill="hsla(0, 0%, 100%, 1.00)" rx="2.0789473684210527"></rect><rect width="4.157894736842105" height="25" x="447.92105263157896" y="137.5" stroke="none" fill="hsla(0, 0%, 100%, 1.00)" rx="2.0789473684210527"></rect><rect width="25" height="4.157894736842105" x="487.5" y="147.92105263157896" stroke="none" fill="hsla(0, 0%, 100%, 1.00)" rx="2.0789473684210527"></rect><rect width="4.157894736842105" height="25" x="497.92105263157896" y="137.5" stroke="none" fill="hsla(0, 0%, 100%, 1.00)" rx="2.0789473684210527"></rect><rect width="25" height="4.157894736842105" x="537.5" y="147.92105263157896" stroke="none" fill="hsla(0, 0%, 100%, 1.00)" rx="2.0789473684210527"></rect><rect width="4.157894736842105" height="25" x="547.921052631579" y="137.5" stroke="none" fill="hsla(0, 0%, 100%, 1.00)" rx="2.0789473684210527"></rect><rect width="25" height="4.157894736842105" x="587.5" y="147.92105263157896" stroke="none" fill="hsla(0, 0%, 100%, 1.00)" rx="2.0789473684210527"></rect><rect width="4.157894736842105" height="25" x="597.921052631579" y="137.5" stroke="none" fill="hsla(0, 0%, 100%, 1.00)" rx="2.0789473684210527"></rect><rect width="25" height="4.157894736842105" x="637.5" y="147.92105263157896" stroke="none" fill="hsla(0, 0%, 100%, 1.00)" rx="2.0789473684210527"></rect><rect width="4.157894736842105" height="25" x="647.921052631579" y="137.5" stroke="none" fill="hsla(0, 0%, 100%, 1.00)" rx="2.0789473684210527"></rect><rect width="25" height="4.157894736842105" x="687.5" y="147.92105263157896" stroke="none" fill="hsla(0, 0%, 100%, 1.00)" rx="2.0789473684210527"></rect><rect width="4.157894736842105" height="25" x="697.921052631579" y="137.5" stroke="none" fill="hsla(0, 0%, 100%, 1.00)" rx="2.0789473684210527"></rect><rect width="25" height="4.157894736842105" x="737.5" y="147.92105263157896" stroke="none" fill="hsla(0, 0%, 100%, 1.00)" rx="2.0789473684210527"></rect><rect width="4.157894736842105" height="25" x="747.921052631579" y="137.5" stroke="none" fill="hsla(0, 0%, 100%, 1.00)" rx="2.0789473684210527"></rect><rect width="25" height="4.157894736842105" x="787.5" y="147.92105263157896" stroke="none" fill="hsla(0, 0%, 100%, 1.00)" rx="2.0789473684210527"></rect><rect width="4.157894736842105" height="25" x="797.921052631579" y="137.5" stroke="none" fill="hsla(0, 0%, 100%, 1.00)" rx="2.0789473684210527"></rect><rect width="25" height="4.157894736842105" x="-12.5" y="197.92105263157896" stroke="none" fill="hsla(0, 0%, 100%, 1.00)" rx="2.0789473684210527"></rect><rect width="4.157894736842105" height="25" x="-2.0789473684210527" y="187.5" stroke="none" fill="hsla(0, 0%, 100%, 1.00)" rx="2.0789473684210527"></rect><rect width="25" height="4.157894736842105" x="37.5" y="197.92105263157896" stroke="none" fill="hsla(0, 0%, 100%, 1.00)" rx="2.0789473684210527"></rect><rect width="4.157894736842105" height="25" x="47.921052631578945" y="187.5" stroke="none" fill="hsla(0, 0%, 100%, 1.00)" rx="2.0789473684210527"></rect><rect width="25" height="4.157894736842105" x="87.5" y="197.92105263157896" stroke="none" fill="hsla(0, 0%, 100%, 1.00)" rx="2.0789473684210527"></rect><rect width="4.157894736842105" height="25" x="97.92105263157895" y="187.5" stroke="none" fill="hsla(0, 0%, 100%, 1.00)" rx="2.0789473684210527"></rect><rect width="25" height="4.157894736842105" x="137.5" y="197.92105263157896" stroke="none" fill="hsla(0, 0%, 100%, 1.00)" rx="2.0789473684210527"></rect><rect width="4.157894736842105" height="25" x="147.92105263157896" y="187.5" stroke="none" fill="hsla(0, 0%, 100%, 1.00)" rx="2.0789473684210527"></rect><rect width="25" height="4.157894736842105" x="187.5" y="197.92105263157896" stroke="none" fill="hsla(0, 0%, 100%, 1.00)" rx="2.0789473684210527"></rect><rect width="4.157894736842105" height="25" x="197.92105263157896" y="187.5" stroke="none" fill="hsla(0, 0%, 100%, 1.00)" rx="2.0789473684210527"></rect><rect width="25" height="4.157894736842105" x="237.5" y="197.92105263157896" stroke="none" fill="hsla(0, 0%, 100%, 1.00)" rx="2.0789473684210527"></rect><rect width="4.157894736842105" height="25" x="247.92105263157896" y="187.5" stroke="none" fill="hsla(0, 0%, 100%, 1.00)" rx="2.0789473684210527"></rect><rect width="25" height="4.157894736842105" x="287.5" y="197.92105263157896" stroke="none" fill="hsla(0, 0%, 100%, 1.00)" rx="2.0789473684210527"></rect><rect width="4.157894736842105" height="25" x="297.92105263157896" y="187.5" stroke="none" fill="hsla(0, 0%, 100%, 1.00)" rx="2.0789473684210527"></rect><rect width="25" height="4.157894736842105" x="337.5" y="197.92105263157896" stroke="none" fill="hsla(0, 0%, 100%, 1.00)" rx="2.0789473684210527"></rect><rect width="4.157894736842105" height="25" x="347.92105263157896" y="187.5" stroke="none" fill="hsla(0, 0%, 100%, 1.00)" rx="2.0789473684210527"></rect><rect width="25" height="4.157894736842105" x="387.5" y="197.92105263157896" stroke="none" fill="hsla(0, 0%, 100%, 1.00)" rx="2.0789473684210527"></rect><rect width="4.157894736842105" height="25" x="397.92105263157896" y="187.5" stroke="none" fill="hsla(0, 0%, 100%, 1.00)" rx="2.0789473684210527"></rect><rect width="25" height="4.157894736842105" x="437.5" y="197.92105263157896" stroke="none" fill="hsla(0, 0%, 100%, 1.00)" rx="2.0789473684210527"></rect><rect width="4.157894736842105" height="25" x="447.92105263157896" y="187.5" stroke="none" fill="hsla(0, 0%, 100%, 1.00)" rx="2.0789473684210527"></rect><rect width="25" height="4.157894736842105" x="487.5" y="197.92105263157896" stroke="none" fill="hsla(0, 0%, 100%, 1.00)" rx="2.0789473684210527"></rect><rect width="4.157894736842105" height="25" x="497.92105263157896" y="187.5" stroke="none" fill="hsla(0, 0%, 100%, 1.00)" rx="2.0789473684210527"></rect><rect width="25" height="4.157894736842105" x="537.5" y="197.92105263157896" stroke="none" fill="hsla(0, 0%, 100%, 1.00)" rx="2.0789473684210527"></rect><rect width="4.157894736842105" height="25" x="547.921052631579" y="187.5" stroke="none" fill="hsla(0, 0%, 100%, 1.00)" rx="2.0789473684210527"></rect><rect width="25" height="4.157894736842105" x="587.5" y="197.92105263157896" stroke="none" fill="hsla(0, 0%, 100%, 1.00)" rx="2.0789473684210527"></rect><rect width="4.157894736842105" height="25" x="597.921052631579" y="187.5" stroke="none" fill="hsla(0, 0%, 100%, 1.00)" rx="2.0789473684210527"></rect><rect width="25" height="4.157894736842105" x="637.5" y="197.92105263157896" stroke="none" fill="hsla(0, 0%, 100%, 1.00)" rx="2.0789473684210527"></rect><rect width="4.157894736842105" height="25" x="647.921052631579" y="187.5" stroke="none" fill="hsla(0, 0%, 100%, 1.00)" rx="2.0789473684210527"></rect><rect width="25" height="4.157894736842105" x="687.5" y="197.92105263157896" stroke="none" fill="hsla(0, 0%, 100%, 1.00)" rx="2.0789473684210527"></rect><rect width="4.157894736842105" height="25" x="697.921052631579" y="187.5" stroke="none" fill="hsla(0, 0%, 100%, 1.00)" rx="2.0789473684210527"></rect><rect width="25" height="4.157894736842105" x="737.5" y="197.92105263157896" stroke="none" fill="hsla(0, 0%, 100%, 1.00)" rx="2.0789473684210527"></rect><rect width="4.157894736842105" height="25" x="747.921052631579" y="187.5" stroke="none" fill="hsla(0, 0%, 100%, 1.00)" rx="2.0789473684210527"></rect><rect width="25" height="4.157894736842105" x="787.5" y="197.92105263157896" stroke="none" fill="hsla(0, 0%, 100%, 1.00)" rx="2.0789473684210527"></rect><rect width="4.157894736842105" height="25" x="797.921052631579" y="187.5" stroke="none" fill="hsla(0, 0%, 100%, 1.00)" rx="2.0789473684210527"></rect><rect width="25" height="4.157894736842105" x="-12.5" y="247.92105263157896" stroke="none" fill="hsla(0, 0%, 100%, 1.00)" rx="2.0789473684210527"></rect><rect width="4.157894736842105" height="25" x="-2.0789473684210527" y="237.5" stroke="none" fill="hsla(0, 0%, 100%, 1.00)" rx="2.0789473684210527"></rect><rect width="25" height="4.157894736842105" x="37.5" y="247.92105263157896" stroke="none" fill="hsla(0, 0%, 100%, 1.00)" rx="2.0789473684210527"></rect><rect width="4.157894736842105" height="25" x="47.921052631578945" y="237.5" stroke="none" fill="hsla(0, 0%, 100%, 1.00)" rx="2.0789473684210527"></rect><rect width="25" height="4.157894736842105" x="87.5" y="247.92105263157896" stroke="none" fill="hsla(0, 0%, 100%, 1.00)" rx="2.0789473684210527"></rect><rect width="4.157894736842105" height="25" x="97.92105263157895" y="237.5" stroke="none" fill="hsla(0, 0%, 100%, 1.00)" rx="2.0789473684210527"></rect><rect width="25" height="4.157894736842105" x="137.5" y="247.92105263157896" stroke="none" fill="hsla(0, 0%, 100%, 1.00)" rx="2.0789473684210527"></rect><rect width="4.157894736842105" height="25" x="147.92105263157896" y="237.5" stroke="none" fill="hsla(0, 0%, 100%, 1.00)" rx="2.0789473684210527"></rect><rect width="25" height="4.157894736842105" x="187.5" y="247.92105263157896" stroke="none" fill="hsla(0, 0%, 100%, 1.00)" rx="2.0789473684210527"></rect><rect width="4.157894736842105" height="25" x="197.92105263157896" y="237.5" stroke="none" fill="hsla(0, 0%, 100%, 1.00)" rx="2.0789473684210527"></rect><rect width="25" height="4.157894736842105" x="237.5" y="247.92105263157896" stroke="none" fill="hsla(0, 0%, 100%, 1.00)" rx="2.0789473684210527"></rect><rect width="4.157894736842105" height="25" x="247.92105263157896" y="237.5" stroke="none" fill="hsla(0, 0%, 100%, 1.00)" rx="2.0789473684210527"></rect><rect width="25" height="4.157894736842105" x="287.5" y="247.92105263157896" stroke="none" fill="hsla(0, 0%, 100%, 1.00)" rx="2.0789473684210527"></rect><rect width="4.157894736842105" height="25" x="297.92105263157896" y="237.5" stroke="none" fill="hsla(0, 0%, 100%, 1.00)" rx="2.0789473684210527"></rect><rect width="25" height="4.157894736842105" x="337.5" y="247.92105263157896" stroke="none" fill="hsla(0, 0%, 100%, 1.00)" rx="2.0789473684210527"></rect><rect width="4.157894736842105" height="25" x="347.92105263157896" y="237.5" stroke="none" fill="hsla(0, 0%, 100%, 1.00)" rx="2.0789473684210527"></rect><rect width="25" height="4.157894736842105" x="387.5" y="247.92105263157896" stroke="none" fill="hsla(0, 0%, 100%, 1.00)" rx="2.0789473684210527"></rect><rect width="4.157894736842105" height="25" x="397.92105263157896" y="237.5" stroke="none" fill="hsla(0, 0%, 100%, 1.00)" rx="2.0789473684210527"></rect><rect width="25" height="4.157894736842105" x="437.5" y="247.92105263157896" stroke="none" fill="hsla(0, 0%, 100%, 1.00)" rx="2.0789473684210527"></rect><rect width="4.157894736842105" height="25" x="447.92105263157896" y="237.5" stroke="none" fill="hsla(0, 0%, 100%, 1.00)" rx="2.0789473684210527"></rect><rect width="25" height="4.157894736842105" x="487.5" y="247.92105263157896" stroke="none" fill="hsla(0, 0%, 100%, 1.00)" rx="2.0789473684210527"></rect><rect width="4.157894736842105" height="25" x="497.92105263157896" y="237.5" stroke="none" fill="hsla(0, 0%, 100%, 1.00)" rx="2.0789473684210527"></rect><rect width="25" height="4.157894736842105" x="537.5" y="247.92105263157896" stroke="none" fill="hsla(0, 0%, 100%, 1.00)" rx="2.0789473684210527"></rect><rect width="4.157894736842105" height="25" x="547.921052631579" y="237.5" stroke="none" fill="hsla(0, 0%, 100%, 1.00)" rx="2.0789473684210527"></rect><rect width="25" height="4.157894736842105" x="587.5" y="247.92105263157896" stroke="none" fill="hsla(0, 0%, 100%, 1.00)" rx="2.0789473684210527"></rect><rect width="4.157894736842105" height="25" x="597.921052631579" y="237.5" stroke="none" fill="hsla(0, 0%, 100%, 1.00)" rx="2.0789473684210527"></rect><rect width="25" height="4.157894736842105" x="637.5" y="247.92105263157896" stroke="none" fill="hsla(0, 0%, 100%, 1.00)" rx="2.0789473684210527"></rect><rect width="4.157894736842105" height="25" x="647.921052631579" y="237.5" stroke="none" fill="hsla(0, 0%, 100%, 1.00)" rx="2.0789473684210527"></rect><rect width="25" height="4.157894736842105" x="687.5" y="247.92105263157896" stroke="none" fill="hsla(0, 0%, 100%, 1.00)" rx="2.0789473684210527"></rect><rect width="4.157894736842105" height="25" x="697.921052631579" y="237.5" stroke="none" fill="hsla(0, 0%, 100%, 1.00)" rx="2.0789473684210527"></rect><rect width="25" height="4.157894736842105" x="737.5" y="247.92105263157896" stroke="none" fill="hsla(0, 0%, 100%, 1.00)" rx="2.0789473684210527"></rect><rect width="4.157894736842105" height="25" x="747.921052631579" y="237.5" stroke="none" fill="hsla(0, 0%, 100%, 1.00)" rx="2.0789473684210527"></rect><rect width="25" height="4.157894736842105" x="787.5" y="247.92105263157896" stroke="none" fill="hsla(0, 0%, 100%, 1.00)" rx="2.0789473684210527"></rect><rect width="4.157894736842105" height="25" x="797.921052631579" y="237.5" stroke="none" fill="hsla(0, 0%, 100%, 1.00)" rx="2.0789473684210527"></rect><rect width="25" height="4.157894736842105" x="-12.5" y="297.92105263157896" stroke="none" fill="hsla(0, 0%, 100%, 1.00)" rx="2.0789473684210527"></rect><rect width="4.157894736842105" height="25" x="-2.0789473684210527" y="287.5" stroke="none" fill="hsla(0, 0%, 100%, 1.00)" rx="2.0789473684210527"></rect><rect width="25" height="4.157894736842105" x="37.5" y="297.92105263157896" stroke="none" fill="hsla(0, 0%, 100%, 1.00)" rx="2.0789473684210527"></rect><rect width="4.157894736842105" height="25" x="47.921052631578945" y="287.5" stroke="none" fill="hsla(0, 0%, 100%, 1.00)" rx="2.0789473684210527"></rect><rect width="25" height="4.157894736842105" x="87.5" y="297.92105263157896" stroke="none" fill="hsla(0, 0%, 100%, 1.00)" rx="2.0789473684210527"></rect><rect width="4.157894736842105" height="25" x="97.92105263157895" y="287.5" stroke="none" fill="hsla(0, 0%, 100%, 1.00)" rx="2.0789473684210527"></rect><rect width="25" height="4.157894736842105" x="137.5" y="297.92105263157896" stroke="none" fill="hsla(0, 0%, 100%, 1.00)" rx="2.0789473684210527"></rect><rect width="4.157894736842105" height="25" x="147.92105263157896" y="287.5" stroke="none" fill="hsla(0, 0%, 100%, 1.00)" rx="2.0789473684210527"></rect><rect width="25" height="4.157894736842105" x="187.5" y="297.92105263157896" stroke="none" fill="hsla(0, 0%, 100%, 1.00)" rx="2.0789473684210527"></rect><rect width="4.157894736842105" height="25" x="197.92105263157896" y="287.5" stroke="none" fill="hsla(0, 0%, 100%, 1.00)" rx="2.0789473684210527"></rect><rect width="25" height="4.157894736842105" x="237.5" y="297.92105263157896" stroke="none" fill="hsla(0, 0%, 100%, 1.00)" rx="2.0789473684210527"></rect><rect width="4.157894736842105" height="25" x="247.92105263157896" y="287.5" stroke="none" fill="hsla(0, 0%, 100%, 1.00)" rx="2.0789473684210527"></rect><rect width="25" height="4.157894736842105" x="287.5" y="297.92105263157896" stroke="none" fill="hsla(0, 0%, 100%, 1.00)" rx="2.0789473684210527"></rect><rect width="4.157894736842105" height="25" x="297.92105263157896" y="287.5" stroke="none" fill="hsla(0, 0%, 100%, 1.00)" rx="2.0789473684210527"></rect><rect width="25" height="4.157894736842105" x="337.5" y="297.92105263157896" stroke="none" fill="hsla(0, 0%, 100%, 1.00)" rx="2.0789473684210527"></rect><rect width="4.157894736842105" height="25" x="347.92105263157896" y="287.5" stroke="none" fill="hsla(0, 0%, 100%, 1.00)" rx="2.0789473684210527"></rect><rect width="25" height="4.157894736842105" x="387.5" y="297.92105263157896" stroke="none" fill="hsla(0, 0%, 100%, 1.00)" rx="2.0789473684210527"></rect><rect width="4.157894736842105" height="25" x="397.92105263157896" y="287.5" stroke="none" fill="hsla(0, 0%, 100%, 1.00)" rx="2.0789473684210527"></rect><rect width="25" height="4.157894736842105" x="437.5" y="297.92105263157896" stroke="none" fill="hsla(0, 0%, 100%, 1.00)" rx="2.0789473684210527"></rect><rect width="4.157894736842105" height="25" x="447.92105263157896" y="287.5" stroke="none" fill="hsla(0, 0%, 100%, 1.00)" rx="2.0789473684210527"></rect><rect width="25" height="4.157894736842105" x="487.5" y="297.92105263157896" stroke="none" fill="hsla(0, 0%, 100%, 1.00)" rx="2.0789473684210527"></rect><rect width="4.157894736842105" height="25" x="497.92105263157896" y="287.5" stroke="none" fill="hsla(0, 0%, 100%, 1.00)" rx="2.0789473684210527"></rect><rect width="25" height="4.157894736842105" x="537.5" y="297.92105263157896" stroke="none" fill="hsla(0, 0%, 100%, 1.00)" rx="2.0789473684210527"></rect><rect width="4.157894736842105" height="25" x="547.921052631579" y="287.5" stroke="none" fill="hsla(0, 0%, 100%, 1.00)" rx="2.0789473684210527"></rect><rect width="25" height="4.157894736842105" x="587.5" y="297.92105263157896" stroke="none" fill="hsla(0, 0%, 100%, 1.00)" rx="2.0789473684210527"></rect><rect width="4.157894736842105" height="25" x="597.921052631579" y="287.5" stroke="none" fill="hsla(0, 0%, 100%, 1.00)" rx="2.0789473684210527"></rect><rect width="25" height="4.157894736842105" x="637.5" y="297.92105263157896" stroke="none" fill="hsla(0, 0%, 100%, 1.00)" rx="2.0789473684210527"></rect><rect width="4.157894736842105" height="25" x="647.921052631579" y="287.5" stroke="none" fill="hsla(0, 0%, 100%, 1.00)" rx="2.0789473684210527"></rect><rect width="25" height="4.157894736842105" x="687.5" y="297.92105263157896" stroke="none" fill="hsla(0, 0%, 100%, 1.00)" rx="2.0789473684210527"></rect><rect width="4.157894736842105" height="25" x="697.921052631579" y="287.5" stroke="none" fill="hsla(0, 0%, 100%, 1.00)" rx="2.0789473684210527"></rect><rect width="25" height="4.157894736842105" x="737.5" y="297.92105263157896" stroke="none" fill="hsla(0, 0%, 100%, 1.00)" rx="2.0789473684210527"></rect><rect width="4.157894736842105" height="25" x="747.921052631579" y="287.5" stroke="none" fill="hsla(0, 0%, 100%, 1.00)" rx="2.0789473684210527"></rect><rect width="25" height="4.157894736842105" x="787.5" y="297.92105263157896" stroke="none" fill="hsla(0, 0%, 100%, 1.00)" rx="2.0789473684210527"></rect><rect width="4.157894736842105" height="25" x="797.921052631579" y="287.5" stroke="none" fill="hsla(0, 0%, 100%, 1.00)" rx="2.0789473684210527"></rect><rect width="25" height="4.157894736842105" x="-12.5" y="347.92105263157896" stroke="none" fill="hsla(0, 0%, 100%, 1.00)" rx="2.0789473684210527"></rect><rect width="4.157894736842105" height="25" x="-2.0789473684210527" y="337.5" stroke="none" fill="hsla(0, 0%, 100%, 1.00)" rx="2.0789473684210527"></rect><rect width="25" height="4.157894736842105" x="37.5" y="347.92105263157896" stroke="none" fill="hsla(0, 0%, 100%, 1.00)" rx="2.0789473684210527"></rect><rect width="4.157894736842105" height="25" x="47.921052631578945" y="337.5" stroke="none" fill="hsla(0, 0%, 100%, 1.00)" rx="2.0789473684210527"></rect><rect width="25" height="4.157894736842105" x="87.5" y="347.92105263157896" stroke="none" fill="hsla(0, 0%, 100%, 1.00)" rx="2.0789473684210527"></rect><rect width="4.157894736842105" height="25" x="97.92105263157895" y="337.5" stroke="none" fill="hsla(0, 0%, 100%, 1.00)" rx="2.0789473684210527"></rect><rect width="25" height="4.157894736842105" x="137.5" y="347.92105263157896" stroke="none" fill="hsla(0, 0%, 100%, 1.00)" rx="2.0789473684210527"></rect><rect width="4.157894736842105" height="25" x="147.92105263157896" y="337.5" stroke="none" fill="hsla(0, 0%, 100%, 1.00)" rx="2.0789473684210527"></rect><rect width="25" height="4.157894736842105" x="187.5" y="347.92105263157896" stroke="none" fill="hsla(0, 0%, 100%, 1.00)" rx="2.0789473684210527"></rect><rect width="4.157894736842105" height="25" x="197.92105263157896" y="337.5" stroke="none" fill="hsla(0, 0%, 100%, 1.00)" rx="2.0789473684210527"></rect><rect width="25" height="4.157894736842105" x="237.5" y="347.92105263157896" stroke="none" fill="hsla(0, 0%, 100%, 1.00)" rx="2.0789473684210527"></rect><rect width="4.157894736842105" height="25" x="247.92105263157896" y="337.5" stroke="none" fill="hsla(0, 0%, 100%, 1.00)" rx="2.0789473684210527"></rect><rect width="25" height="4.157894736842105" x="287.5" y="347.92105263157896" stroke="none" fill="hsla(0, 0%, 100%, 1.00)" rx="2.0789473684210527"></rect><rect width="4.157894736842105" height="25" x="297.92105263157896" y="337.5" stroke="none" fill="hsla(0, 0%, 100%, 1.00)" rx="2.0789473684210527"></rect><rect width="25" height="4.157894736842105" x="337.5" y="347.92105263157896" stroke="none" fill="hsla(0, 0%, 100%, 1.00)" rx="2.0789473684210527"></rect><rect width="4.157894736842105" height="25" x="347.92105263157896" y="337.5" stroke="none" fill="hsla(0, 0%, 100%, 1.00)" rx="2.0789473684210527"></rect><rect width="25" height="4.157894736842105" x="387.5" y="347.92105263157896" stroke="none" fill="hsla(0, 0%, 100%, 1.00)" rx="2.0789473684210527"></rect><rect width="4.157894736842105" height="25" x="397.92105263157896" y="337.5" stroke="none" fill="hsla(0, 0%, 100%, 1.00)" rx="2.0789473684210527"></rect><rect width="25" height="4.157894736842105" x="437.5" y="347.92105263157896" stroke="none" fill="hsla(0, 0%, 100%, 1.00)" rx="2.0789473684210527"></rect><rect width="4.157894736842105" height="25" x="447.92105263157896" y="337.5" stroke="none" fill="hsla(0, 0%, 100%, 1.00)" rx="2.0789473684210527"></rect><rect width="25" height="4.157894736842105" x="487.5" y="347.92105263157896" stroke="none" fill="hsla(0, 0%, 100%, 1.00)" rx="2.0789473684210527"></rect><rect width="4.157894736842105" height="25" x="497.92105263157896" y="337.5" stroke="none" fill="hsla(0, 0%, 100%, 1.00)" rx="2.0789473684210527"></rect><rect width="25" height="4.157894736842105" x="537.5" y="347.92105263157896" stroke="none" fill="hsla(0, 0%, 100%, 1.00)" rx="2.0789473684210527"></rect><rect width="4.157894736842105" height="25" x="547.921052631579" y="337.5" stroke="none" fill="hsla(0, 0%, 100%, 1.00)" rx="2.0789473684210527"></rect><rect width="25" height="4.157894736842105" x="587.5" y="347.92105263157896" stroke="none" fill="hsla(0, 0%, 100%, 1.00)" rx="2.0789473684210527"></rect><rect width="4.157894736842105" height="25" x="597.921052631579" y="337.5" stroke="none" fill="hsla(0, 0%, 100%, 1.00)" rx="2.0789473684210527"></rect><rect width="25" height="4.157894736842105" x="637.5" y="347.92105263157896" stroke="none" fill="hsla(0, 0%, 100%, 1.00)" rx="2.0789473684210527"></rect><rect width="4.157894736842105" height="25" x="647.921052631579" y="337.5" stroke="none" fill="hsla(0, 0%, 100%, 1.00)" rx="2.0789473684210527"></rect><rect width="25" height="4.157894736842105" x="687.5" y="347.92105263157896" stroke="none" fill="hsla(0, 0%, 100%, 1.00)" rx="2.0789473684210527"></rect><rect width="4.157894736842105" height="25" x="697.921052631579" y="337.5" stroke="none" fill="hsla(0, 0%, 100%, 1.00)" rx="2.0789473684210527"></rect><rect width="25" height="4.157894736842105" x="737.5" y="347.92105263157896" stroke="none" fill="hsla(0, 0%, 100%, 1.00)" rx="2.0789473684210527"></rect><rect width="4.157894736842105" height="25" x="747.921052631579" y="337.5" stroke="none" fill="hsla(0, 0%, 100%, 1.00)" rx="2.0789473684210527"></rect><rect width="25" height="4.157894736842105" x="787.5" y="347.92105263157896" stroke="none" fill="hsla(0, 0%, 100%, 1.00)" rx="2.0789473684210527"></rect><rect width="4.157894736842105" height="25" x="797.921052631579" y="337.5" stroke="none" fill="hsla(0, 0%, 100%, 1.00)" rx="2.0789473684210527"></rect><rect width="25" height="4.157894736842105" x="-12.5" y="397.92105263157896" stroke="none" fill="hsla(0, 0%, 100%, 1.00)" rx="2.0789473684210527"></rect><rect width="4.157894736842105" height="25" x="-2.0789473684210527" y="387.5" stroke="none" fill="hsla(0, 0%, 100%, 1.00)" rx="2.0789473684210527"></rect><rect width="25" height="4.157894736842105" x="37.5" y="397.92105263157896" stroke="none" fill="hsla(0, 0%, 100%, 1.00)" rx="2.0789473684210527"></rect><rect width="4.157894736842105" height="25" x="47.921052631578945" y="387.5" stroke="none" fill="hsla(0, 0%, 100%, 1.00)" rx="2.0789473684210527"></rect><rect width="25" height="4.157894736842105" x="87.5" y="397.92105263157896" stroke="none" fill="hsla(0, 0%, 100%, 1.00)" rx="2.0789473684210527"></rect><rect width="4.157894736842105" height="25" x="97.92105263157895" y="387.5" stroke="none" fill="hsla(0, 0%, 100%, 1.00)" rx="2.0789473684210527"></rect><rect width="25" height="4.157894736842105" x="137.5" y="397.92105263157896" stroke="none" fill="hsla(0, 0%, 100%, 1.00)" rx="2.0789473684210527"></rect><rect width="4.157894736842105" height="25" x="147.92105263157896" y="387.5" stroke="none" fill="hsla(0, 0%, 100%, 1.00)" rx="2.0789473684210527"></rect><rect width="25" height="4.157894736842105" x="187.5" y="397.92105263157896" stroke="none" fill="hsla(0, 0%, 100%, 1.00)" rx="2.0789473684210527"></rect><rect width="4.157894736842105" height="25" x="197.92105263157896" y="387.5" stroke="none" fill="hsla(0, 0%, 100%, 1.00)" rx="2.0789473684210527"></rect><rect width="25" height="4.157894736842105" x="237.5" y="397.92105263157896" stroke="none" fill="hsla(0, 0%, 100%, 1.00)" rx="2.0789473684210527"></rect><rect width="4.157894736842105" height="25" x="247.92105263157896" y="387.5" stroke="none" fill="hsla(0, 0%, 100%, 1.00)" rx="2.0789473684210527"></rect><rect width="25" height="4.157894736842105" x="287.5" y="397.92105263157896" stroke="none" fill="hsla(0, 0%, 100%, 1.00)" rx="2.0789473684210527"></rect><rect width="4.157894736842105" height="25" x="297.92105263157896" y="387.5" stroke="none" fill="hsla(0, 0%, 100%, 1.00)" rx="2.0789473684210527"></rect><rect width="25" height="4.157894736842105" x="337.5" y="397.92105263157896" stroke="none" fill="hsla(0, 0%, 100%, 1.00)" rx="2.0789473684210527"></rect><rect width="4.157894736842105" height="25" x="347.92105263157896" y="387.5" stroke="none" fill="hsla(0, 0%, 100%, 1.00)" rx="2.0789473684210527"></rect><rect width="25" height="4.157894736842105" x="387.5" y="397.92105263157896" stroke="none" fill="hsla(0, 0%, 100%, 1.00)" rx="2.0789473684210527"></rect><rect width="4.157894736842105" height="25" x="397.92105263157896" y="387.5" stroke="none" fill="hsla(0, 0%, 100%, 1.00)" rx="2.0789473684210527"></rect><rect width="25" height="4.157894736842105" x="437.5" y="397.92105263157896" stroke="none" fill="hsla(0, 0%, 100%, 1.00)" rx="2.0789473684210527"></rect><rect width="4.157894736842105" height="25" x="447.92105263157896" y="387.5" stroke="none" fill="hsla(0, 0%, 100%, 1.00)" rx="2.0789473684210527"></rect><rect width="25" height="4.157894736842105" x="487.5" y="397.92105263157896" stroke="none" fill="hsla(0, 0%, 100%, 1.00)" rx="2.0789473684210527"></rect><rect width="4.157894736842105" height="25" x="497.92105263157896" y="387.5" stroke="none" fill="hsla(0, 0%, 100%, 1.00)" rx="2.0789473684210527"></rect><rect width="25" height="4.157894736842105" x="537.5" y="397.92105263157896" stroke="none" fill="hsla(0, 0%, 100%, 1.00)" rx="2.0789473684210527"></rect><rect width="4.157894736842105" height="25" x="547.921052631579" y="387.5" stroke="none" fill="hsla(0, 0%, 100%, 1.00)" rx="2.0789473684210527"></rect><rect width="25" height="4.157894736842105" x="587.5" y="397.92105263157896" stroke="none" fill="hsla(0, 0%, 100%, 1.00)" rx="2.0789473684210527"></rect><rect width="4.157894736842105" height="25" x="597.921052631579" y="387.5" stroke="none" fill="hsla(0, 0%, 100%, 1.00)" rx="2.0789473684210527"></rect><rect width="25" height="4.157894736842105" x="637.5" y="397.92105263157896" stroke="none" fill="hsla(0, 0%, 100%, 1.00)" rx="2.0789473684210527"></rect><rect width="4.157894736842105" height="25" x="647.921052631579" y="387.5" stroke="none" fill="hsla(0, 0%, 100%, 1.00)" rx="2.0789473684210527"></rect><rect width="25" height="4.157894736842105" x="687.5" y="397.92105263157896" stroke="none" fill="hsla(0, 0%, 100%, 1.00)" rx="2.0789473684210527"></rect><rect width="4.157894736842105" height="25" x="697.921052631579" y="387.5" stroke="none" fill="hsla(0, 0%, 100%, 1.00)" rx="2.0789473684210527"></rect><rect width="25" height="4.157894736842105" x="737.5" y="397.92105263157896" stroke="none" fill="hsla(0, 0%, 100%, 1.00)" rx="2.0789473684210527"></rect><rect width="4.157894736842105" height="25" x="747.921052631579" y="387.5" stroke="none" fill="hsla(0, 0%, 100%, 1.00)" rx="2.0789473684210527"></rect><rect width="25" height="4.157894736842105" x="787.5" y="397.92105263157896" stroke="none" fill="hsla(0, 0%, 100%, 1.00)" rx="2.0789473684210527"></rect><rect width="4.157894736842105" height="25" x="797.921052631579" y="387.5" stroke="none" fill="hsla(0, 0%, 100%, 1.00)" rx="2.0789473684210527"></rect><rect width="25" height="4.157894736842105" x="-12.5" y="447.92105263157896" stroke="none" fill="hsla(0, 0%, 100%, 1.00)" rx="2.0789473684210527"></rect><rect width="4.157894736842105" height="25" x="-2.0789473684210527" y="437.5" stroke="none" fill="hsla(0, 0%, 100%, 1.00)" rx="2.0789473684210527"></rect><rect width="25" height="4.157894736842105" x="37.5" y="447.92105263157896" stroke="none" fill="hsla(0, 0%, 100%, 1.00)" rx="2.0789473684210527"></rect><rect width="4.157894736842105" height="25" x="47.921052631578945" y="437.5" stroke="none" fill="hsla(0, 0%, 100%, 1.00)" rx="2.0789473684210527"></rect><rect width="25" height="4.157894736842105" x="87.5" y="447.92105263157896" stroke="none" fill="hsla(0, 0%, 100%, 1.00)" rx="2.0789473684210527"></rect><rect width="4.157894736842105" height="25" x="97.92105263157895" y="437.5" stroke="none" fill="hsla(0, 0%, 100%, 1.00)" rx="2.0789473684210527"></rect><rect width="25" height="4.157894736842105" x="137.5" y="447.92105263157896" stroke="none" fill="hsla(0, 0%, 100%, 1.00)" rx="2.0789473684210527"></rect><rect width="4.157894736842105" height="25" x="147.92105263157896" y="437.5" stroke="none" fill="hsla(0, 0%, 100%, 1.00)" rx="2.0789473684210527"></rect><rect width="25" height="4.157894736842105" x="187.5" y="447.92105263157896" stroke="none" fill="hsla(0, 0%, 100%, 1.00)" rx="2.0789473684210527"></rect><rect width="4.157894736842105" height="25" x="197.92105263157896" y="437.5" stroke="none" fill="hsla(0, 0%, 100%, 1.00)" rx="2.0789473684210527"></rect><rect width="25" height="4.157894736842105" x="237.5" y="447.92105263157896" stroke="none" fill="hsla(0, 0%, 100%, 1.00)" rx="2.0789473684210527"></rect><rect width="4.157894736842105" height="25" x="247.92105263157896" y="437.5" stroke="none" fill="hsla(0, 0%, 100%, 1.00)" rx="2.0789473684210527"></rect><rect width="25" height="4.157894736842105" x="287.5" y="447.92105263157896" stroke="none" fill="hsla(0, 0%, 100%, 1.00)" rx="2.0789473684210527"></rect><rect width="4.157894736842105" height="25" x="297.92105263157896" y="437.5" stroke="none" fill="hsla(0, 0%, 100%, 1.00)" rx="2.0789473684210527"></rect><rect width="25" height="4.157894736842105" x="337.5" y="447.92105263157896" stroke="none" fill="hsla(0, 0%, 100%, 1.00)" rx="2.0789473684210527"></rect><rect width="4.157894736842105" height="25" x="347.92105263157896" y="437.5" stroke="none" fill="hsla(0, 0%, 100%, 1.00)" rx="2.0789473684210527"></rect><rect width="25" height="4.157894736842105" x="387.5" y="447.92105263157896" stroke="none" fill="hsla(0, 0%, 100%, 1.00)" rx="2.0789473684210527"></rect><rect width="4.157894736842105" height="25" x="397.92105263157896" y="437.5" stroke="none" fill="hsla(0, 0%, 100%, 1.00)" rx="2.0789473684210527"></rect><rect width="25" height="4.157894736842105" x="437.5" y="447.92105263157896" stroke="none" fill="hsla(0, 0%, 100%, 1.00)" rx="2.0789473684210527"></rect><rect width="4.157894736842105" height="25" x="447.92105263157896" y="437.5" stroke="none" fill="hsla(0, 0%, 100%, 1.00)" rx="2.0789473684210527"></rect><rect width="25" height="4.157894736842105" x="487.5" y="447.92105263157896" stroke="none" fill="hsla(0, 0%, 100%, 1.00)" rx="2.0789473684210527"></rect><rect width="4.157894736842105" height="25" x="497.92105263157896" y="437.5" stroke="none" fill="hsla(0, 0%, 100%, 1.00)" rx="2.0789473684210527"></rect><rect width="25" height="4.157894736842105" x="537.5" y="447.92105263157896" stroke="none" fill="hsla(0, 0%, 100%, 1.00)" rx="2.0789473684210527"></rect><rect width="4.157894736842105" height="25" x="547.921052631579" y="437.5" stroke="none" fill="hsla(0, 0%, 100%, 1.00)" rx="2.0789473684210527"></rect><rect width="25" height="4.157894736842105" x="587.5" y="447.92105263157896" stroke="none" fill="hsla(0, 0%, 100%, 1.00)" rx="2.0789473684210527"></rect><rect width="4.157894736842105" height="25" x="597.921052631579" y="437.5" stroke="none" fill="hsla(0, 0%, 100%, 1.00)" rx="2.0789473684210527"></rect><rect width="25" height="4.157894736842105" x="637.5" y="447.92105263157896" stroke="none" fill="hsla(0, 0%, 100%, 1.00)" rx="2.0789473684210527"></rect><rect width="4.157894736842105" height="25" x="647.921052631579" y="437.5" stroke="none" fill="hsla(0, 0%, 100%, 1.00)" rx="2.0789473684210527"></rect><rect width="25" height="4.157894736842105" x="687.5" y="447.92105263157896" stroke="none" fill="hsla(0, 0%, 100%, 1.00)" rx="2.0789473684210527"></rect><rect width="4.157894736842105" height="25" x="697.921052631579" y="437.5" stroke="none" fill="hsla(0, 0%, 100%, 1.00)" rx="2.0789473684210527"></rect><rect width="25" height="4.157894736842105" x="737.5" y="447.92105263157896" stroke="none" fill="hsla(0, 0%, 100%, 1.00)" rx="2.0789473684210527"></rect><rect width="4.157894736842105" height="25" x="747.921052631579" y="437.5" stroke="none" fill="hsla(0, 0%, 100%, 1.00)" rx="2.0789473684210527"></rect><rect width="25" height="4.157894736842105" x="787.5" y="447.92105263157896" stroke="none" fill="hsla(0, 0%, 100%, 1.00)" rx="2.0789473684210527"></rect><rect width="4.157894736842105" height="25" x="797.921052631579" y="437.5" stroke="none" fill="hsla(0, 0%, 100%, 1.00)" rx="2.0789473684210527"></rect><rect width="25" height="4.157894736842105" x="-12.5" y="497.92105263157896" stroke="none" fill="hsla(0, 0%, 100%, 1.00)" rx="2.0789473684210527"></rect><rect width="4.157894736842105" height="25" x="-2.0789473684210527" y="487.5" stroke="none" fill="hsla(0, 0%, 100%, 1.00)" rx="2.0789473684210527"></rect><rect width="25" height="4.157894736842105" x="37.5" y="497.92105263157896" stroke="none" fill="hsla(0, 0%, 100%, 1.00)" rx="2.0789473684210527"></rect><rect width="4.157894736842105" height="25" x="47.921052631578945" y="487.5" stroke="none" fill="hsla(0, 0%, 100%, 1.00)" rx="2.0789473684210527"></rect><rect width="25" height="4.157894736842105" x="87.5" y="497.92105263157896" stroke="none" fill="hsla(0, 0%, 100%, 1.00)" rx="2.0789473684210527"></rect><rect width="4.157894736842105" height="25" x="97.92105263157895" y="487.5" stroke="none" fill="hsla(0, 0%, 100%, 1.00)" rx="2.0789473684210527"></rect><rect width="25" height="4.157894736842105" x="137.5" y="497.92105263157896" stroke="none" fill="hsla(0, 0%, 100%, 1.00)" rx="2.0789473684210527"></rect><rect width="4.157894736842105" height="25" x="147.92105263157896" y="487.5" stroke="none" fill="hsla(0, 0%, 100%, 1.00)" rx="2.0789473684210527"></rect><rect width="25" height="4.157894736842105" x="187.5" y="497.92105263157896" stroke="none" fill="hsla(0, 0%, 100%, 1.00)" rx="2.0789473684210527"></rect><rect width="4.157894736842105" height="25" x="197.92105263157896" y="487.5" stroke="none" fill="hsla(0, 0%, 100%, 1.00)" rx="2.0789473684210527"></rect><rect width="25" height="4.157894736842105" x="237.5" y="497.92105263157896" stroke="none" fill="hsla(0, 0%, 100%, 1.00)" rx="2.0789473684210527"></rect><rect width="4.157894736842105" height="25" x="247.92105263157896" y="487.5" stroke="none" fill="hsla(0, 0%, 100%, 1.00)" rx="2.0789473684210527"></rect><rect width="25" height="4.157894736842105" x="287.5" y="497.92105263157896" stroke="none" fill="hsla(0, 0%, 100%, 1.00)" rx="2.0789473684210527"></rect><rect width="4.157894736842105" height="25" x="297.92105263157896" y="487.5" stroke="none" fill="hsla(0, 0%, 100%, 1.00)" rx="2.0789473684210527"></rect><rect width="25" height="4.157894736842105" x="337.5" y="497.92105263157896" stroke="none" fill="hsla(0, 0%, 100%, 1.00)" rx="2.0789473684210527"></rect><rect width="4.157894736842105" height="25" x="347.92105263157896" y="487.5" stroke="none" fill="hsla(0, 0%, 100%, 1.00)" rx="2.0789473684210527"></rect><rect width="25" height="4.157894736842105" x="387.5" y="497.92105263157896" stroke="none" fill="hsla(0, 0%, 100%, 1.00)" rx="2.0789473684210527"></rect><rect width="4.157894736842105" height="25" x="397.92105263157896" y="487.5" stroke="none" fill="hsla(0, 0%, 100%, 1.00)" rx="2.0789473684210527"></rect><rect width="25" height="4.157894736842105" x="437.5" y="497.92105263157896" stroke="none" fill="hsla(0, 0%, 100%, 1.00)" rx="2.0789473684210527"></rect><rect width="4.157894736842105" height="25" x="447.92105263157896" y="487.5" stroke="none" fill="hsla(0, 0%, 100%, 1.00)" rx="2.0789473684210527"></rect><rect width="25" height="4.157894736842105" x="487.5" y="497.92105263157896" stroke="none" fill="hsla(0, 0%, 100%, 1.00)" rx="2.0789473684210527"></rect><rect width="4.157894736842105" height="25" x="497.92105263157896" y="487.5" stroke="none" fill="hsla(0, 0%, 100%, 1.00)" rx="2.0789473684210527"></rect><rect width="25" height="4.157894736842105" x="537.5" y="497.92105263157896" stroke="none" fill="hsla(0, 0%, 100%, 1.00)" rx="2.0789473684210527"></rect><rect width="4.157894736842105" height="25" x="547.921052631579" y="487.5" stroke="none" fill="hsla(0, 0%, 100%, 1.00)" rx="2.0789473684210527"></rect><rect width="25" height="4.157894736842105" x="587.5" y="497.92105263157896" stroke="none" fill="hsla(0, 0%, 100%, 1.00)" rx="2.0789473684210527"></rect><rect width="4.157894736842105" height="25" x="597.921052631579" y="487.5" stroke="none" fill="hsla(0, 0%, 100%, 1.00)" rx="2.0789473684210527"></rect><rect width="25" height="4.157894736842105" x="637.5" y="497.92105263157896" stroke="none" fill="hsla(0, 0%, 100%, 1.00)" rx="2.0789473684210527"></rect><rect width="4.157894736842105" height="25" x="647.921052631579" y="487.5" stroke="none" fill="hsla(0, 0%, 100%, 1.00)" rx="2.0789473684210527"></rect><rect width="25" height="4.157894736842105" x="687.5" y="497.92105263157896" stroke="none" fill="hsla(0, 0%, 100%, 1.00)" rx="2.0789473684210527"></rect><rect width="4.157894736842105" height="25" x="697.921052631579" y="487.5" stroke="none" fill="hsla(0, 0%, 100%, 1.00)" rx="2.0789473684210527"></rect><rect width="25" height="4.157894736842105" x="737.5" y="497.92105263157896" stroke="none" fill="hsla(0, 0%, 100%, 1.00)" rx="2.0789473684210527"></rect><rect width="4.157894736842105" height="25" x="747.921052631579" y="487.5" stroke="none" fill="hsla(0, 0%, 100%, 1.00)" rx="2.0789473684210527"></rect><rect width="25" height="4.157894736842105" x="787.5" y="497.92105263157896" stroke="none" fill="hsla(0, 0%, 100%, 1.00)" rx="2.0789473684210527"></rect><rect width="4.157894736842105" height="25" x="797.921052631579" y="487.5" stroke="none" fill="hsla(0, 0%, 100%, 1.00)" rx="2.0789473684210527"></rect><rect width="25" height="4.157894736842105" x="-12.5" y="547.921052631579" stroke="none" fill="hsla(0, 0%, 100%, 1.00)" rx="2.0789473684210527"></rect><rect width="4.157894736842105" height="25" x="-2.0789473684210527" y="537.5" stroke="none" fill="hsla(0, 0%, 100%, 1.00)" rx="2.0789473684210527"></rect><rect width="25" height="4.157894736842105" x="37.5" y="547.921052631579" stroke="none" fill="hsla(0, 0%, 100%, 1.00)" rx="2.0789473684210527"></rect><rect width="4.157894736842105" height="25" x="47.921052631578945" y="537.5" stroke="none" fill="hsla(0, 0%, 100%, 1.00)" rx="2.0789473684210527"></rect><rect width="25" height="4.157894736842105" x="87.5" y="547.921052631579" stroke="none" fill="hsla(0, 0%, 100%, 1.00)" rx="2.0789473684210527"></rect><rect width="4.157894736842105" height="25" x="97.92105263157895" y="537.5" stroke="none" fill="hsla(0, 0%, 100%, 1.00)" rx="2.0789473684210527"></rect><rect width="25" height="4.157894736842105" x="137.5" y="547.921052631579" stroke="none" fill="hsla(0, 0%, 100%, 1.00)" rx="2.0789473684210527"></rect><rect width="4.157894736842105" height="25" x="147.92105263157896" y="537.5" stroke="none" fill="hsla(0, 0%, 100%, 1.00)" rx="2.0789473684210527"></rect><rect width="25" height="4.157894736842105" x="187.5" y="547.921052631579" stroke="none" fill="hsla(0, 0%, 100%, 1.00)" rx="2.0789473684210527"></rect><rect width="4.157894736842105" height="25" x="197.92105263157896" y="537.5" stroke="none" fill="hsla(0, 0%, 100%, 1.00)" rx="2.0789473684210527"></rect><rect width="25" height="4.157894736842105" x="237.5" y="547.921052631579" stroke="none" fill="hsla(0, 0%, 100%, 1.00)" rx="2.0789473684210527"></rect><rect width="4.157894736842105" height="25" x="247.92105263157896" y="537.5" stroke="none" fill="hsla(0, 0%, 100%, 1.00)" rx="2.0789473684210527"></rect><rect width="25" height="4.157894736842105" x="287.5" y="547.921052631579" stroke="none" fill="hsla(0, 0%, 100%, 1.00)" rx="2.0789473684210527"></rect><rect width="4.157894736842105" height="25" x="297.92105263157896" y="537.5" stroke="none" fill="hsla(0, 0%, 100%, 1.00)" rx="2.0789473684210527"></rect><rect width="25" height="4.157894736842105" x="337.5" y="547.921052631579" stroke="none" fill="hsla(0, 0%, 100%, 1.00)" rx="2.0789473684210527"></rect><rect width="4.157894736842105" height="25" x="347.92105263157896" y="537.5" stroke="none" fill="hsla(0, 0%, 100%, 1.00)" rx="2.0789473684210527"></rect><rect width="25" height="4.157894736842105" x="387.5" y="547.921052631579" stroke="none" fill="hsla(0, 0%, 100%, 1.00)" rx="2.0789473684210527"></rect><rect width="4.157894736842105" height="25" x="397.92105263157896" y="537.5" stroke="none" fill="hsla(0, 0%, 100%, 1.00)" rx="2.0789473684210527"></rect><rect width="25" height="4.157894736842105" x="437.5" y="547.921052631579" stroke="none" fill="hsla(0, 0%, 100%, 1.00)" rx="2.0789473684210527"></rect><rect width="4.157894736842105" height="25" x="447.92105263157896" y="537.5" stroke="none" fill="hsla(0, 0%, 100%, 1.00)" rx="2.0789473684210527"></rect><rect width="25" height="4.157894736842105" x="487.5" y="547.921052631579" stroke="none" fill="hsla(0, 0%, 100%, 1.00)" rx="2.0789473684210527"></rect><rect width="4.157894736842105" height="25" x="497.92105263157896" y="537.5" stroke="none" fill="hsla(0, 0%, 100%, 1.00)" rx="2.0789473684210527"></rect><rect width="25" height="4.157894736842105" x="537.5" y="547.921052631579" stroke="none" fill="hsla(0, 0%, 100%, 1.00)" rx="2.0789473684210527"></rect><rect width="4.157894736842105" height="25" x="547.921052631579" y="537.5" stroke="none" fill="hsla(0, 0%, 100%, 1.00)" rx="2.0789473684210527"></rect><rect width="25" height="4.157894736842105" x="587.5" y="547.921052631579" stroke="none" fill="hsla(0, 0%, 100%, 1.00)" rx="2.0789473684210527"></rect><rect width="4.157894736842105" height="25" x="597.921052631579" y="537.5" stroke="none" fill="hsla(0, 0%, 100%, 1.00)" rx="2.0789473684210527"></rect><rect width="25" height="4.157894736842105" x="637.5" y="547.921052631579" stroke="none" fill="hsla(0, 0%, 100%, 1.00)" rx="2.0789473684210527"></rect><rect width="4.157894736842105" height="25" x="647.921052631579" y="537.5" stroke="none" fill="hsla(0, 0%, 100%, 1.00)" rx="2.0789473684210527"></rect><rect width="25" height="4.157894736842105" x="687.5" y="547.921052631579" stroke="none" fill="hsla(0, 0%, 100%, 1.00)" rx="2.0789473684210527"></rect><rect width="4.157894736842105" height="25" x="697.921052631579" y="537.5" stroke="none" fill="hsla(0, 0%, 100%, 1.00)" rx="2.0789473684210527"></rect><rect width="25" height="4.157894736842105" x="737.5" y="547.921052631579" stroke="none" fill="hsla(0, 0%, 100%, 1.00)" rx="2.0789473684210527"></rect><rect width="4.157894736842105" height="25" x="747.921052631579" y="537.5" stroke="none" fill="hsla(0, 0%, 100%, 1.00)" rx="2.0789473684210527"></rect><rect width="25" height="4.157894736842105" x="787.5" y="547.921052631579" stroke="none" fill="hsla(0, 0%, 100%, 1.00)" rx="2.0789473684210527"></rect><rect width="4.157894736842105" height="25" x="797.921052631579" y="537.5" stroke="none" fill="hsla(0, 0%, 100%, 1.00)" rx="2.0789473684210527"></rect><rect width="25" height="4.157894736842105" x="-12.5" y="597.921052631579" stroke="none" fill="hsla(0, 0%, 100%, 1.00)" rx="2.0789473684210527"></rect><rect width="4.157894736842105" height="25" x="-2.0789473684210527" y="587.5" stroke="none" fill="hsla(0, 0%, 100%, 1.00)" rx="2.0789473684210527"></rect><rect width="25" height="4.157894736842105" x="37.5" y="597.921052631579" stroke="none" fill="hsla(0, 0%, 100%, 1.00)" rx="2.0789473684210527"></rect><rect width="4.157894736842105" height="25" x="47.921052631578945" y="587.5" stroke="none" fill="hsla(0, 0%, 100%, 1.00)" rx="2.0789473684210527"></rect><rect width="25" height="4.157894736842105" x="87.5" y="597.921052631579" stroke="none" fill="hsla(0, 0%, 100%, 1.00)" rx="2.0789473684210527"></rect><rect width="4.157894736842105" height="25" x="97.92105263157895" y="587.5" stroke="none" fill="hsla(0, 0%, 100%, 1.00)" rx="2.0789473684210527"></rect><rect width="25" height="4.157894736842105" x="137.5" y="597.921052631579" stroke="none" fill="hsla(0, 0%, 100%, 1.00)" rx="2.0789473684210527"></rect><rect width="4.157894736842105" height="25" x="147.92105263157896" y="587.5" stroke="none" fill="hsla(0, 0%, 100%, 1.00)" rx="2.0789473684210527"></rect><rect width="25" height="4.157894736842105" x="187.5" y="597.921052631579" stroke="none" fill="hsla(0, 0%, 100%, 1.00)" rx="2.0789473684210527"></rect><rect width="4.157894736842105" height="25" x="197.92105263157896" y="587.5" stroke="none" fill="hsla(0, 0%, 100%, 1.00)" rx="2.0789473684210527"></rect><rect width="25" height="4.157894736842105" x="237.5" y="597.921052631579" stroke="none" fill="hsla(0, 0%, 100%, 1.00)" rx="2.0789473684210527"></rect><rect width="4.157894736842105" height="25" x="247.92105263157896" y="587.5" stroke="none" fill="hsla(0, 0%, 100%, 1.00)" rx="2.0789473684210527"></rect><rect width="25" height="4.157894736842105" x="287.5" y="597.921052631579" stroke="none" fill="hsla(0, 0%, 100%, 1.00)" rx="2.0789473684210527"></rect><rect width="4.157894736842105" height="25" x="297.92105263157896" y="587.5" stroke="none" fill="hsla(0, 0%, 100%, 1.00)" rx="2.0789473684210527"></rect><rect width="25" height="4.157894736842105" x="337.5" y="597.921052631579" stroke="none" fill="hsla(0, 0%, 100%, 1.00)" rx="2.0789473684210527"></rect><rect width="4.157894736842105" height="25" x="347.92105263157896" y="587.5" stroke="none" fill="hsla(0, 0%, 100%, 1.00)" rx="2.0789473684210527"></rect><rect width="25" height="4.157894736842105" x="387.5" y="597.921052631579" stroke="none" fill="hsla(0, 0%, 100%, 1.00)" rx="2.0789473684210527"></rect><rect width="4.157894736842105" height="25" x="397.92105263157896" y="587.5" stroke="none" fill="hsla(0, 0%, 100%, 1.00)" rx="2.0789473684210527"></rect><rect width="25" height="4.157894736842105" x="437.5" y="597.921052631579" stroke="none" fill="hsla(0, 0%, 100%, 1.00)" rx="2.0789473684210527"></rect><rect width="4.157894736842105" height="25" x="447.92105263157896" y="587.5" stroke="none" fill="hsla(0, 0%, 100%, 1.00)" rx="2.0789473684210527"></rect><rect width="25" height="4.157894736842105" x="487.5" y="597.921052631579" stroke="none" fill="hsla(0, 0%, 100%, 1.00)" rx="2.0789473684210527"></rect><rect width="4.157894736842105" height="25" x="497.92105263157896" y="587.5" stroke="none" fill="hsla(0, 0%, 100%, 1.00)" rx="2.0789473684210527"></rect><rect width="25" height="4.157894736842105" x="537.5" y="597.921052631579" stroke="none" fill="hsla(0, 0%, 100%, 1.00)" rx="2.0789473684210527"></rect><rect width="4.157894736842105" height="25" x="547.921052631579" y="587.5" stroke="none" fill="hsla(0, 0%, 100%, 1.00)" rx="2.0789473684210527"></rect><rect width="25" height="4.157894736842105" x="587.5" y="597.921052631579" stroke="none" fill="hsla(0, 0%, 100%, 1.00)" rx="2.0789473684210527"></rect><rect width="4.157894736842105" height="25" x="597.921052631579" y="587.5" stroke="none" fill="hsla(0, 0%, 100%, 1.00)" rx="2.0789473684210527"></rect><rect width="25" height="4.157894736842105" x="637.5" y="597.921052631579" stroke="none" fill="hsla(0, 0%, 100%, 1.00)" rx="2.0789473684210527"></rect><rect width="4.157894736842105" height="25" x="647.921052631579" y="587.5" stroke="none" fill="hsla(0, 0%, 100%, 1.00)" rx="2.0789473684210527"></rect><rect width="25" height="4.157894736842105" x="687.5" y="597.921052631579" stroke="none" fill="hsla(0, 0%, 100%, 1.00)" rx="2.0789473684210527"></rect><rect width="4.157894736842105" height="25" x="697.921052631579" y="587.5" stroke="none" fill="hsla(0, 0%, 100%, 1.00)" rx="2.0789473684210527"></rect><rect width="25" height="4.157894736842105" x="737.5" y="597.921052631579" stroke="none" fill="hsla(0, 0%, 100%, 1.00)" rx="2.0789473684210527"></rect><rect width="4.157894736842105" height="25" x="747.921052631579" y="587.5" stroke="none" fill="hsla(0, 0%, 100%, 1.00)" rx="2.0789473684210527"></rect><rect width="25" height="4.157894736842105" x="787.5" y="597.921052631579" stroke="none" fill="hsla(0, 0%, 100%, 1.00)" rx="2.0789473684210527"></rect><rect width="4.157894736842105" height="25" x="797.921052631579" y="587.5" stroke="none" fill="hsla(0, 0%, 100%, 1.00)" rx="2.0789473684210527"></rect><rect width="25" height="4.157894736842105" x="-12.5" y="647.921052631579" stroke="none" fill="hsla(0, 0%, 100%, 1.00)" rx="2.0789473684210527"></rect><rect width="4.157894736842105" height="25" x="-2.0789473684210527" y="637.5" stroke="none" fill="hsla(0, 0%, 100%, 1.00)" rx="2.0789473684210527"></rect><rect width="25" height="4.157894736842105" x="37.5" y="647.921052631579" stroke="none" fill="hsla(0, 0%, 100%, 1.00)" rx="2.0789473684210527"></rect><rect width="4.157894736842105" height="25" x="47.921052631578945" y="637.5" stroke="none" fill="hsla(0, 0%, 100%, 1.00)" rx="2.0789473684210527"></rect><rect width="25" height="4.157894736842105" x="87.5" y="647.921052631579" stroke="none" fill="hsla(0, 0%, 100%, 1.00)" rx="2.0789473684210527"></rect><rect width="4.157894736842105" height="25" x="97.92105263157895" y="637.5" stroke="none" fill="hsla(0, 0%, 100%, 1.00)" rx="2.0789473684210527"></rect><rect width="25" height="4.157894736842105" x="137.5" y="647.921052631579" stroke="none" fill="hsla(0, 0%, 100%, 1.00)" rx="2.0789473684210527"></rect><rect width="4.157894736842105" height="25" x="147.92105263157896" y="637.5" stroke="none" fill="hsla(0, 0%, 100%, 1.00)" rx="2.0789473684210527"></rect><rect width="25" height="4.157894736842105" x="187.5" y="647.921052631579" stroke="none" fill="hsla(0, 0%, 100%, 1.00)" rx="2.0789473684210527"></rect><rect width="4.157894736842105" height="25" x="197.92105263157896" y="637.5" stroke="none" fill="hsla(0, 0%, 100%, 1.00)" rx="2.0789473684210527"></rect><rect width="25" height="4.157894736842105" x="237.5" y="647.921052631579" stroke="none" fill="hsla(0, 0%, 100%, 1.00)" rx="2.0789473684210527"></rect><rect width="4.157894736842105" height="25" x="247.92105263157896" y="637.5" stroke="none" fill="hsla(0, 0%, 100%, 1.00)" rx="2.0789473684210527"></rect><rect width="25" height="4.157894736842105" x="287.5" y="647.921052631579" stroke="none" fill="hsla(0, 0%, 100%, 1.00)" rx="2.0789473684210527"></rect><rect width="4.157894736842105" height="25" x="297.92105263157896" y="637.5" stroke="none" fill="hsla(0, 0%, 100%, 1.00)" rx="2.0789473684210527"></rect><rect width="25" height="4.157894736842105" x="337.5" y="647.921052631579" stroke="none" fill="hsla(0, 0%, 100%, 1.00)" rx="2.0789473684210527"></rect><rect width="4.157894736842105" height="25" x="347.92105263157896" y="637.5" stroke="none" fill="hsla(0, 0%, 100%, 1.00)" rx="2.0789473684210527"></rect><rect width="25" height="4.157894736842105" x="387.5" y="647.921052631579" stroke="none" fill="hsla(0, 0%, 100%, 1.00)" rx="2.0789473684210527"></rect><rect width="4.157894736842105" height="25" x="397.92105263157896" y="637.5" stroke="none" fill="hsla(0, 0%, 100%, 1.00)" rx="2.0789473684210527"></rect><rect width="25" height="4.157894736842105" x="437.5" y="647.921052631579" stroke="none" fill="hsla(0, 0%, 100%, 1.00)" rx="2.0789473684210527"></rect><rect width="4.157894736842105" height="25" x="447.92105263157896" y="637.5" stroke="none" fill="hsla(0, 0%, 100%, 1.00)" rx="2.0789473684210527"></rect><rect width="25" height="4.157894736842105" x="487.5" y="647.921052631579" stroke="none" fill="hsla(0, 0%, 100%, 1.00)" rx="2.0789473684210527"></rect><rect width="4.157894736842105" height="25" x="497.92105263157896" y="637.5" stroke="none" fill="hsla(0, 0%, 100%, 1.00)" rx="2.0789473684210527"></rect><rect width="25" height="4.157894736842105" x="537.5" y="647.921052631579" stroke="none" fill="hsla(0, 0%, 100%, 1.00)" rx="2.0789473684210527"></rect><rect width="4.157894736842105" height="25" x="547.921052631579" y="637.5" stroke="none" fill="hsla(0, 0%, 100%, 1.00)" rx="2.0789473684210527"></rect><rect width="25" height="4.157894736842105" x="587.5" y="647.921052631579" stroke="none" fill="hsla(0, 0%, 100%, 1.00)" rx="2.0789473684210527"></rect><rect width="4.157894736842105" height="25" x="597.921052631579" y="637.5" stroke="none" fill="hsla(0, 0%, 100%, 1.00)" rx="2.0789473684210527"></rect><rect width="25" height="4.157894736842105" x="637.5" y="647.921052631579" stroke="none" fill="hsla(0, 0%, 100%, 1.00)" rx="2.0789473684210527"></rect><rect width="4.157894736842105" height="25" x="647.921052631579" y="637.5" stroke="none" fill="hsla(0, 0%, 100%, 1.00)" rx="2.0789473684210527"></rect><rect width="25" height="4.157894736842105" x="687.5" y="647.921052631579" stroke="none" fill="hsla(0, 0%, 100%, 1.00)" rx="2.0789473684210527"></rect><rect width="4.157894736842105" height="25" x="697.921052631579" y="637.5" stroke="none" fill="hsla(0, 0%, 100%, 1.00)" rx="2.0789473684210527"></rect><rect width="25" height="4.157894736842105" x="737.5" y="647.921052631579" stroke="none" fill="hsla(0, 0%, 100%, 1.00)" rx="2.0789473684210527"></rect><rect width="4.157894736842105" height="25" x="747.921052631579" y="637.5" stroke="none" fill="hsla(0, 0%, 100%, 1.00)" rx="2.0789473684210527"></rect><rect width="25" height="4.157894736842105" x="787.5" y="647.921052631579" stroke="none" fill="hsla(0, 0%, 100%, 1.00)" rx="2.0789473684210527"></rect><rect width="4.157894736842105" height="25" x="797.921052631579" y="637.5" stroke="none" fill="hsla(0, 0%, 100%, 1.00)" rx="2.0789473684210527"></rect><rect width="25" height="4.157894736842105" x="-12.5" y="697.921052631579" stroke="none" fill="hsla(0, 0%, 100%, 1.00)" rx="2.0789473684210527"></rect><rect width="4.157894736842105" height="25" x="-2.0789473684210527" y="687.5" stroke="none" fill="hsla(0, 0%, 100%, 1.00)" rx="2.0789473684210527"></rect><rect width="25" height="4.157894736842105" x="37.5" y="697.921052631579" stroke="none" fill="hsla(0, 0%, 100%, 1.00)" rx="2.0789473684210527"></rect><rect width="4.157894736842105" height="25" x="47.921052631578945" y="687.5" stroke="none" fill="hsla(0, 0%, 100%, 1.00)" rx="2.0789473684210527"></rect><rect width="25" height="4.157894736842105" x="87.5" y="697.921052631579" stroke="none" fill="hsla(0, 0%, 100%, 1.00)" rx="2.0789473684210527"></rect><rect width="4.157894736842105" height="25" x="97.92105263157895" y="687.5" stroke="none" fill="hsla(0, 0%, 100%, 1.00)" rx="2.0789473684210527"></rect><rect width="25" height="4.157894736842105" x="137.5" y="697.921052631579" stroke="none" fill="hsla(0, 0%, 100%, 1.00)" rx="2.0789473684210527"></rect><rect width="4.157894736842105" height="25" x="147.92105263157896" y="687.5" stroke="none" fill="hsla(0, 0%, 100%, 1.00)" rx="2.0789473684210527"></rect><rect width="25" height="4.157894736842105" x="187.5" y="697.921052631579" stroke="none" fill="hsla(0, 0%, 100%, 1.00)" rx="2.0789473684210527"></rect><rect width="4.157894736842105" height="25" x="197.92105263157896" y="687.5" stroke="none" fill="hsla(0, 0%, 100%, 1.00)" rx="2.0789473684210527"></rect><rect width="25" height="4.157894736842105" x="237.5" y="697.921052631579" stroke="none" fill="hsla(0, 0%, 100%, 1.00)" rx="2.0789473684210527"></rect><rect width="4.157894736842105" height="25" x="247.92105263157896" y="687.5" stroke="none" fill="hsla(0, 0%, 100%, 1.00)" rx="2.0789473684210527"></rect><rect width="25" height="4.157894736842105" x="287.5" y="697.921052631579" stroke="none" fill="hsla(0, 0%, 100%, 1.00)" rx="2.0789473684210527"></rect><rect width="4.157894736842105" height="25" x="297.92105263157896" y="687.5" stroke="none" fill="hsla(0, 0%, 100%, 1.00)" rx="2.0789473684210527"></rect><rect width="25" height="4.157894736842105" x="337.5" y="697.921052631579" stroke="none" fill="hsla(0, 0%, 100%, 1.00)" rx="2.0789473684210527"></rect><rect width="4.157894736842105" height="25" x="347.92105263157896" y="687.5" stroke="none" fill="hsla(0, 0%, 100%, 1.00)" rx="2.0789473684210527"></rect><rect width="25" height="4.157894736842105" x="387.5" y="697.921052631579" stroke="none" fill="hsla(0, 0%, 100%, 1.00)" rx="2.0789473684210527"></rect><rect width="4.157894736842105" height="25" x="397.92105263157896" y="687.5" stroke="none" fill="hsla(0, 0%, 100%, 1.00)" rx="2.0789473684210527"></rect><rect width="25" height="4.157894736842105" x="437.5" y="697.921052631579" stroke="none" fill="hsla(0, 0%, 100%, 1.00)" rx="2.0789473684210527"></rect><rect width="4.157894736842105" height="25" x="447.92105263157896" y="687.5" stroke="none" fill="hsla(0, 0%, 100%, 1.00)" rx="2.0789473684210527"></rect><rect width="25" height="4.157894736842105" x="487.5" y="697.921052631579" stroke="none" fill="hsla(0, 0%, 100%, 1.00)" rx="2.0789473684210527"></rect><rect width="4.157894736842105" height="25" x="497.92105263157896" y="687.5" stroke="none" fill="hsla(0, 0%, 100%, 1.00)" rx="2.0789473684210527"></rect><rect width="25" height="4.157894736842105" x="537.5" y="697.921052631579" stroke="none" fill="hsla(0, 0%, 100%, 1.00)" rx="2.0789473684210527"></rect><rect width="4.157894736842105" height="25" x="547.921052631579" y="687.5" stroke="none" fill="hsla(0, 0%, 100%, 1.00)" rx="2.0789473684210527"></rect><rect width="25" height="4.157894736842105" x="587.5" y="697.921052631579" stroke="none" fill="hsla(0, 0%, 100%, 1.00)" rx="2.0789473684210527"></rect><rect width="4.157894736842105" height="25" x="597.921052631579" y="687.5" stroke="none" fill="hsla(0, 0%, 100%, 1.00)" rx="2.0789473684210527"></rect><rect width="25" height="4.157894736842105" x="637.5" y="697.921052631579" stroke="none" fill="hsla(0, 0%, 100%, 1.00)" rx="2.0789473684210527"></rect><rect width="4.157894736842105" height="25" x="647.921052631579" y="687.5" stroke="none" fill="hsla(0, 0%, 100%, 1.00)" rx="2.0789473684210527"></rect><rect width="25" height="4.157894736842105" x="687.5" y="697.921052631579" stroke="none" fill="hsla(0, 0%, 100%, 1.00)" rx="2.0789473684210527"></rect><rect width="4.157894736842105" height="25" x="697.921052631579" y="687.5" stroke="none" fill="hsla(0, 0%, 100%, 1.00)" rx="2.0789473684210527"></rect><rect width="25" height="4.157894736842105" x="737.5" y="697.921052631579" stroke="none" fill="hsla(0, 0%, 100%, 1.00)" rx="2.0789473684210527"></rect><rect width="4.157894736842105" height="25" x="747.921052631579" y="687.5" stroke="none" fill="hsla(0, 0%, 100%, 1.00)" rx="2.0789473684210527"></rect><rect width="25" height="4.157894736842105" x="787.5" y="697.921052631579" stroke="none" fill="hsla(0, 0%, 100%, 1.00)" rx="2.0789473684210527"></rect><rect width="4.157894736842105" height="25" x="797.921052631579" y="687.5" stroke="none" fill="hsla(0, 0%, 100%, 1.00)" rx="2.0789473684210527"></rect><rect width="25" height="4.157894736842105" x="-12.5" y="747.921052631579" stroke="none" fill="hsla(0, 0%, 100%, 1.00)" rx="2.0789473684210527"></rect><rect width="4.157894736842105" height="25" x="-2.0789473684210527" y="737.5" stroke="none" fill="hsla(0, 0%, 100%, 1.00)" rx="2.0789473684210527"></rect><rect width="25" height="4.157894736842105" x="37.5" y="747.921052631579" stroke="none" fill="hsla(0, 0%, 100%, 1.00)" rx="2.0789473684210527"></rect><rect width="4.157894736842105" height="25" x="47.921052631578945" y="737.5" stroke="none" fill="hsla(0, 0%, 100%, 1.00)" rx="2.0789473684210527"></rect><rect width="25" height="4.157894736842105" x="87.5" y="747.921052631579" stroke="none" fill="hsla(0, 0%, 100%, 1.00)" rx="2.0789473684210527"></rect><rect width="4.157894736842105" height="25" x="97.92105263157895" y="737.5" stroke="none" fill="hsla(0, 0%, 100%, 1.00)" rx="2.0789473684210527"></rect><rect width="25" height="4.157894736842105" x="137.5" y="747.921052631579" stroke="none" fill="hsla(0, 0%, 100%, 1.00)" rx="2.0789473684210527"></rect><rect width="4.157894736842105" height="25" x="147.92105263157896" y="737.5" stroke="none" fill="hsla(0, 0%, 100%, 1.00)" rx="2.0789473684210527"></rect><rect width="25" height="4.157894736842105" x="187.5" y="747.921052631579" stroke="none" fill="hsla(0, 0%, 100%, 1.00)" rx="2.0789473684210527"></rect><rect width="4.157894736842105" height="25" x="197.92105263157896" y="737.5" stroke="none" fill="hsla(0, 0%, 100%, 1.00)" rx="2.0789473684210527"></rect><rect width="25" height="4.157894736842105" x="237.5" y="747.921052631579" stroke="none" fill="hsla(0, 0%, 100%, 1.00)" rx="2.0789473684210527"></rect><rect width="4.157894736842105" height="25" x="247.92105263157896" y="737.5" stroke="none" fill="hsla(0, 0%, 100%, 1.00)" rx="2.0789473684210527"></rect><rect width="25" height="4.157894736842105" x="287.5" y="747.921052631579" stroke="none" fill="hsla(0, 0%, 100%, 1.00)" rx="2.0789473684210527"></rect><rect width="4.157894736842105" height="25" x="297.92105263157896" y="737.5" stroke="none" fill="hsla(0, 0%, 100%, 1.00)" rx="2.0789473684210527"></rect><rect width="25" height="4.157894736842105" x="337.5" y="747.921052631579" stroke="none" fill="hsla(0, 0%, 100%, 1.00)" rx="2.0789473684210527"></rect><rect width="4.157894736842105" height="25" x="347.92105263157896" y="737.5" stroke="none" fill="hsla(0, 0%, 100%, 1.00)" rx="2.0789473684210527"></rect><rect width="25" height="4.157894736842105" x="387.5" y="747.921052631579" stroke="none" fill="hsla(0, 0%, 100%, 1.00)" rx="2.0789473684210527"></rect><rect width="4.157894736842105" height="25" x="397.92105263157896" y="737.5" stroke="none" fill="hsla(0, 0%, 100%, 1.00)" rx="2.0789473684210527"></rect><rect width="25" height="4.157894736842105" x="437.5" y="747.921052631579" stroke="none" fill="hsla(0, 0%, 100%, 1.00)" rx="2.0789473684210527"></rect><rect width="4.157894736842105" height="25" x="447.92105263157896" y="737.5" stroke="none" fill="hsla(0, 0%, 100%, 1.00)" rx="2.0789473684210527"></rect><rect width="25" height="4.157894736842105" x="487.5" y="747.921052631579" stroke="none" fill="hsla(0, 0%, 100%, 1.00)" rx="2.0789473684210527"></rect><rect width="4.157894736842105" height="25" x="497.92105263157896" y="737.5" stroke="none" fill="hsla(0, 0%, 100%, 1.00)" rx="2.0789473684210527"></rect><rect width="25" height="4.157894736842105" x="537.5" y="747.921052631579" stroke="none" fill="hsla(0, 0%, 100%, 1.00)" rx="2.0789473684210527"></rect><rect width="4.157894736842105" height="25" x="547.921052631579" y="737.5" stroke="none" fill="hsla(0, 0%, 100%, 1.00)" rx="2.0789473684210527"></rect><rect width="25" height="4.157894736842105" x="587.5" y="747.921052631579" stroke="none" fill="hsla(0, 0%, 100%, 1.00)" rx="2.0789473684210527"></rect><rect width="4.157894736842105" height="25" x="597.921052631579" y="737.5" stroke="none" fill="hsla(0, 0%, 100%, 1.00)" rx="2.0789473684210527"></rect><rect width="25" height="4.157894736842105" x="637.5" y="747.921052631579" stroke="none" fill="hsla(0, 0%, 100%, 1.00)" rx="2.0789473684210527"></rect><rect width="4.157894736842105" height="25" x="647.921052631579" y="737.5" stroke="none" fill="hsla(0, 0%, 100%, 1.00)" rx="2.0789473684210527"></rect><rect width="25" height="4.157894736842105" x="687.5" y="747.921052631579" stroke="none" fill="hsla(0, 0%, 100%, 1.00)" rx="2.0789473684210527"></rect><rect width="4.157894736842105" height="25" x="697.921052631579" y="737.5" stroke="none" fill="hsla(0, 0%, 100%, 1.00)" rx="2.0789473684210527"></rect><rect width="25" height="4.157894736842105" x="737.5" y="747.921052631579" stroke="none" fill="hsla(0, 0%, 100%, 1.00)" rx="2.0789473684210527"></rect><rect width="4.157894736842105" height="25" x="747.921052631579" y="737.5" stroke="none" fill="hsla(0, 0%, 100%, 1.00)" rx="2.0789473684210527"></rect><rect width="25" height="4.157894736842105" x="787.5" y="747.921052631579" stroke="none" fill="hsla(0, 0%, 100%, 1.00)" rx="2.0789473684210527"></rect><rect width="4.157894736842105" height="25" x="797.921052631579" y="737.5" stroke="none" fill="hsla(0, 0%, 100%, 1.00)" rx="2.0789473684210527"></rect><rect width="25" height="4.157894736842105" x="-12.5" y="797.921052631579" stroke="none" fill="hsla(0, 0%, 100%, 1.00)" rx="2.0789473684210527"></rect><rect width="4.157894736842105" height="25" x="-2.0789473684210527" y="787.5" stroke="none" fill="hsla(0, 0%, 100%, 1.00)" rx="2.0789473684210527"></rect><rect width="25" height="4.157894736842105" x="37.5" y="797.921052631579" stroke="none" fill="hsla(0, 0%, 100%, 1.00)" rx="2.0789473684210527"></rect><rect width="4.157894736842105" height="25" x="47.921052631578945" y="787.5" stroke="none" fill="hsla(0, 0%, 100%, 1.00)" rx="2.0789473684210527"></rect><rect width="25" height="4.157894736842105" x="87.5" y="797.921052631579" stroke="none" fill="hsla(0, 0%, 100%, 1.00)" rx="2.0789473684210527"></rect><rect width="4.157894736842105" height="25" x="97.92105263157895" y="787.5" stroke="none" fill="hsla(0, 0%, 100%, 1.00)" rx="2.0789473684210527"></rect><rect width="25" height="4.157894736842105" x="137.5" y="797.921052631579" stroke="none" fill="hsla(0, 0%, 100%, 1.00)" rx="2.0789473684210527"></rect><rect width="4.157894736842105" height="25" x="147.92105263157896" y="787.5" stroke="none" fill="hsla(0, 0%, 100%, 1.00)" rx="2.0789473684210527"></rect><rect width="25" height="4.157894736842105" x="187.5" y="797.921052631579" stroke="none" fill="hsla(0, 0%, 100%, 1.00)" rx="2.0789473684210527"></rect><rect width="4.157894736842105" height="25" x="197.92105263157896" y="787.5" stroke="none" fill="hsla(0, 0%, 100%, 1.00)" rx="2.0789473684210527"></rect><rect width="25" height="4.157894736842105" x="237.5" y="797.921052631579" stroke="none" fill="hsla(0, 0%, 100%, 1.00)" rx="2.0789473684210527"></rect><rect width="4.157894736842105" height="25" x="247.92105263157896" y="787.5" stroke="none" fill="hsla(0, 0%, 100%, 1.00)" rx="2.0789473684210527"></rect><rect width="25" height="4.157894736842105" x="287.5" y="797.921052631579" stroke="none" fill="hsla(0, 0%, 100%, 1.00)" rx="2.0789473684210527"></rect><rect width="4.157894736842105" height="25" x="297.92105263157896" y="787.5" stroke="none" fill="hsla(0, 0%, 100%, 1.00)" rx="2.0789473684210527"></rect><rect width="25" height="4.157894736842105" x="337.5" y="797.921052631579" stroke="none" fill="hsla(0, 0%, 100%, 1.00)" rx="2.0789473684210527"></rect><rect width="4.157894736842105" height="25" x="347.92105263157896" y="787.5" stroke="none" fill="hsla(0, 0%, 100%, 1.00)" rx="2.0789473684210527"></rect><rect width="25" height="4.157894736842105" x="387.5" y="797.921052631579" stroke="none" fill="hsla(0, 0%, 100%, 1.00)" rx="2.0789473684210527"></rect><rect width="4.157894736842105" height="25" x="397.92105263157896" y="787.5" stroke="none" fill="hsla(0, 0%, 100%, 1.00)" rx="2.0789473684210527"></rect><rect width="25" height="4.157894736842105" x="437.5" y="797.921052631579" stroke="none" fill="hsla(0, 0%, 100%, 1.00)" rx="2.0789473684210527"></rect><rect width="4.157894736842105" height="25" x="447.92105263157896" y="787.5" stroke="none" fill="hsla(0, 0%, 100%, 1.00)" rx="2.0789473684210527"></rect><rect width="25" height="4.157894736842105" x="487.5" y="797.921052631579" stroke="none" fill="hsla(0, 0%, 100%, 1.00)" rx="2.0789473684210527"></rect><rect width="4.157894736842105" height="25" x="497.92105263157896" y="787.5" stroke="none" fill="hsla(0, 0%, 100%, 1.00)" rx="2.0789473684210527"></rect><rect width="25" height="4.157894736842105" x="537.5" y="797.921052631579" stroke="none" fill="hsla(0, 0%, 100%, 1.00)" rx="2.0789473684210527"></rect><rect width="4.157894736842105" height="25" x="547.921052631579" y="787.5" stroke="none" fill="hsla(0, 0%, 100%, 1.00)" rx="2.0789473684210527"></rect><rect width="25" height="4.157894736842105" x="587.5" y="797.921052631579" stroke="none" fill="hsla(0, 0%, 100%, 1.00)" rx="2.0789473684210527"></rect><rect width="4.157894736842105" height="25" x="597.921052631579" y="787.5" stroke="none" fill="hsla(0, 0%, 100%, 1.00)" rx="2.0789473684210527"></rect><rect width="25" height="4.157894736842105" x="637.5" y="797.921052631579" stroke="none" fill="hsla(0, 0%, 100%, 1.00)" rx="2.0789473684210527"></rect><rect width="4.157894736842105" height="25" x="647.921052631579" y="787.5" stroke="none" fill="hsla(0, 0%, 100%, 1.00)" rx="2.0789473684210527"></rect><rect width="25" height="4.157894736842105" x="687.5" y="797.921052631579" stroke="none" fill="hsla(0, 0%, 100%, 1.00)" rx="2.0789473684210527"></rect><rect width="4.157894736842105" height="25" x="697.921052631579" y="787.5" stroke="none" fill="hsla(0, 0%, 100%, 1.00)" rx="2.0789473684210527"></rect><rect width="25" height="4.157894736842105" x="737.5" y="797.921052631579" stroke="none" fill="hsla(0, 0%, 100%, 1.00)" rx="2.0789473684210527"></rect><rect width="4.157894736842105" height="25" x="747.921052631579" y="787.5" stroke="none" fill="hsla(0, 0%, 100%, 1.00)" rx="2.0789473684210527"></rect><rect width="25" height="4.157894736842105" x="787.5" y="797.921052631579" stroke="none" fill="hsla(0, 0%, 100%, 1.00)" rx="2.0789473684210527"></rect><rect width="4.157894736842105" height="25" x="797.921052631579" y="787.5" stroke="none" fill="hsla(0, 0%, 100%, 1.00)" rx="2.0789473684210527"></rect></g></svg>